{"glyphs":{"0":{"ha":717,"x_min":36,"x_max":681,"o":"m 233 890 q 263 908 233 890 q 358 926 293 926 q 483 890 424 926 q 586 792 543 854 q 654 644 629 729 q 679 464 679 558 q 636 231 679 338 q 519 62 593 124 q 358 0 446 0 q 197 62 271 0 q 79 231 122 124 q 36 464 36 338 q 62 644 36 558 q 131 792 88 729 q 233 890 174 854 m 422 39 q 538 212 499 67 q 553 531 578 357 q 451 810 528 704 q 297 888 375 915 q 171 710 219 860 q 147 392 122 561 q 210 189 164 278 q 315 60 257 100 q 422 39 372 21 z "},"1":{"ha":411,"x_min":69,"x_max":421,"o":"m 419 0 l 89 0 q 95 1 92 0 q 109 5 99 1 q 129 13 119 8 q 152 24 139 17 q 175 41 165 32 q 193 63 185 50 q 206 92 201 76 q 207 99 206 94 l 207 564 l 207 801 q 121 839 192 829 l 69 842 l 207 897 l 303 939 l 303 939 l 303 810 l 303 638 l 303 99 q 304 92 303 96 q 341 35 313 58 q 394 7 369 13 l 419 0 z "},"2":{"ha":581,"x_min":56,"x_max":572,"o":"m 571 125 q 524 105 543 119 q 497 74 504 90 q 487 41 490 57 q 483 14 483 25 l 485 4 l 474 4 l 472 3 l 94 3 l 94 51 l 97 51 q 188 216 106 72 q 346 499 271 360 q 425 674 421 638 q 386 837 435 764 q 275 919 338 910 q 131 763 208 928 l 56 844 q 226 935 121 924 q 360 915 294 942 q 469 837 425 889 q 519 719 514 785 q 413 432 526 663 q 201 54 300 201 l 376 58 q 394 90 383 68 q 408 119 404 111 q 429 146 418 139 q 447 150 440 153 l 453 147 l 571 125 z "},"3":{"ha":539,"x_min":11,"x_max":504,"o":"m 403 590 q 456 519 433 560 q 490 431 478 479 q 503 333 503 383 q 423 97 503 194 q 229 0 343 0 q 107 35 164 0 q 13 131 50 69 l 96 111 q 175 28 125 43 q 297 81 239 8 q 375 281 354 154 q 350 538 400 422 q 276 613 313 613 l 128 613 l 110 632 l 92 650 l 144 650 l 301 654 l 318 658 q 359 698 343 665 q 376 770 375 731 q 357 849 378 810 q 294 906 336 889 q 197 900 238 929 q 143 831 156 871 l 131 789 l 33 856 q 165 948 90 926 q 311 938 240 969 q 436 754 432 888 q 431 691 436 726 q 419 635 425 656 l 414 613 q 403 590 408 596 z "},"4":{"ha":779,"x_min":56,"x_max":725,"o":"m 724 0 l 608 0 q 607 15 607 6 l 607 0 l 511 0 l 511 15 l 510 0 l 393 0 q 404 3 397 1 q 429 11 411 4 q 462 27 447 18 q 490 53 476 36 q 510 92 504 71 q 511 99 510 94 l 511 428 l 268 254 l 56 253 q 488 897 483 886 l 607 939 l 607 638 l 607 99 q 608 92 607 96 q 645 35 617 58 q 699 7 674 13 l 724 0 m 167 296 l 511 464 l 511 564 l 511 793 l 496 771 l 468 732 l 300 493 l 300 492 l 167 296 z "},"5":{"ha":614,"x_min":13,"x_max":578,"o":"m 286 708 q 492 605 407 708 q 578 354 578 501 q 492 103 578 207 q 286 0 407 0 q 156 38 217 0 q 56 139 96 75 l 144 118 q 168 83 153 97 q 194 65 183 69 q 229 54 206 61 q 369 101 300 32 q 461 299 439 169 q 448 532 485 431 q 342 656 411 633 q 277 657 308 664 q 216 622 246 650 q 164 547 186 594 l 111 582 l 86 599 l 86 819 q 42 875 85 854 l 14 883 l 86 915 l 175 953 l 464 953 l 465 951 l 476 951 q 476 946 476 950 q 476 931 475 942 q 478 910 476 921 q 486 887 481 900 q 501 863 492 874 q 526 844 510 853 q 563 829 542 835 l 444 808 q 442 806 443 807 q 435 806 440 806 q 426 808 431 806 q 413 817 421 810 q 400 836 406 824 q 384 867 396 844 q 367 901 372 890 l 182 913 l 182 685 q 286 708 232 708 z "},"6":{"ha":624,"x_min":38,"x_max":588,"o":"m 314 643 q 507 549 426 643 q 588 322 588 454 q 507 94 588 189 q 314 0 426 0 q 178 42 240 0 q 82 151 117 85 q 56 214 67 181 q 42 283 46 247 q 38 352 39 319 q 42 425 38 385 q 49 492 46 465 q 60 560 53 519 q 72 641 68 617 q 90 710 76 665 q 121 788 103 756 q 234 906 161 863 q 390 939 307 950 q 561 819 499 922 l 479 782 q 420 882 458 849 q 336 908 382 915 q 232 834 279 900 q 171 671 185 768 q 160 589 163 611 q 314 643 221 643 m 368 26 q 463 146 433 46 q 471 368 493 246 q 388 563 449 490 q 263 617 326 635 q 188 551 221 603 q 142 428 154 500 q 144 271 131 356 q 234 79 165 151 q 368 26 303 7 z "},"7":{"ha":733,"x_min":56,"x_max":678,"o":"m 678 865 l 647 856 q 588 800 597 836 l 521 563 l 519 563 l 388 92 q 388 53 385 71 q 397 27 390 36 q 411 11 404 18 q 424 3 418 4 l 429 0 l 197 0 q 215 7 204 1 q 252 35 226 13 q 292 92 278 58 l 446 638 l 494 808 l 507 853 l 251 839 q 234 805 246 828 q 218 772 222 782 q 197 747 208 754 q 181 743 186 740 l 174 744 l 56 767 q 103 788 83 774 q 130 819 122 803 q 140 852 138 836 q 143 878 143 868 l 142 889 l 154 889 l 154 890 l 499 890 l 518 896 l 531 936 l 531 936 l 614 896 l 678 865 l 678 865 z "},"8":{"ha":544,"x_min":35,"x_max":531,"o":"m 325 588 q 337 578 328 588 q 358 552 346 568 q 383 521 371 536 q 405 491 394 506 q 418 475 415 476 q 494 350 475 401 q 489 163 529 260 q 403 47 460 93 q 276 0 346 0 q 106 87 176 0 q 36 297 36 174 q 81 469 36 393 q 197 576 125 546 l 153 628 q 92 768 92 685 q 146 901 92 846 q 276 956 200 956 q 406 901 351 956 q 460 768 460 846 q 422 654 460 704 q 325 588 383 604 m 242 940 q 192 899 208 932 q 171 826 175 865 q 201 714 167 768 q 285 610 244 650 q 303 597 294 600 q 333 603 318 592 q 355 632 347 615 q 367 664 363 649 q 363 794 379 718 q 315 910 347 869 q 242 940 283 951 m 324 25 q 400 94 372 40 q 428 203 428 149 q 407 299 428 246 q 356 397 386 351 q 294 481 325 443 q 240 541 263 519 q 211 558 217 563 q 146 440 165 528 q 144 250 126 353 q 215 72 163 138 q 324 25 267 7 z "},"9":{"ha":624,"x_min":36,"x_max":586,"o":"m 310 297 q 116 392 196 297 q 36 619 36 486 q 116 847 36 753 q 310 940 196 940 q 444 898 383 940 q 542 789 506 856 q 575 695 564 746 q 584 585 586 644 q 578 485 582 526 q 564 381 574 443 q 551 299 556 324 q 533 230 546 275 q 503 153 521 185 q 388 35 461 79 q 233 3 315 -10 q 63 121 124 18 l 144 158 q 203 59 165 92 q 286 32 240 26 q 391 106 343 40 q 453 269 439 172 q 463 351 461 329 q 310 297 403 297 m 254 914 q 160 795 190 894 q 153 574 131 696 q 235 378 175 451 q 360 325 296 306 q 463 447 426 344 q 479 669 500 550 q 390 861 458 789 q 254 914 321 933 z "},"\u0000":{"ha":0,"x_min":0,"x_max":0,"o":""},"\n":{"ha":0,"x_min":0,"x_max":0,"o":""},"\r":{"ha":0,"x_min":0,"x_max":0,"o":""}," ":{"ha":324,"x_min":0,"x_max":0,"o":""},"!":{"ha":292,"x_min":10,"x_max":250,"o":"m 133 207 l 82 782 q 38 838 82 818 l 10 847 l 10 847 l 250 919 l 196 207 q 163 212 182 213 q 133 207 144 211 m 117 150 q 211 150 172 164 l 211 81 q 201 0 211 38 l 192 1 q 138 44 160 7 q 117 133 117 82 l 117 150 z "},"#":{"ha":1015,"x_min":14,"x_max":1000,"o":"m 957 671 l 999 671 l 982 579 l 968 510 l 951 536 q 882 581 919 579 l 751 582 l 693 375 l 756 374 l 803 374 l 847 374 l 889 374 l 889 372 l 872 281 l 858 213 l 842 239 q 772 282 810 282 l 667 283 l 611 92 q 612 53 608 71 q 622 27 615 36 q 635 11 628 18 q 649 3 643 4 l 653 0 l 421 0 q 440 7 428 1 q 476 35 451 13 q 515 92 501 58 l 571 286 l 349 290 l 292 92 q 292 53 289 71 q 303 27 296 36 q 317 11 310 18 q 329 3 324 4 l 335 0 l 103 0 q 121 7 110 1 q 158 35 132 13 q 197 92 183 58 l 254 292 l 147 294 l 100 294 l 56 294 l 14 296 l 32 388 l 44 456 l 61 429 q 131 386 93 388 l 281 383 l 340 590 l 257 592 l 210 593 l 167 593 l 124 593 l 142 685 l 154 754 l 171 728 q 240 685 204 685 l 365 682 l 385 747 l 408 838 l 421 883 l 433 925 l 444 967 l 444 967 l 529 925 l 592 894 l 563 885 q 501 829 513 865 l 461 681 l 683 676 l 703 747 l 704 747 l 728 838 l 740 883 l 751 925 l 763 967 l 764 967 l 764 967 l 847 925 l 911 894 l 881 885 q 821 829 831 865 l 779 674 l 867 672 l 913 672 l 957 671 m 597 378 l 657 585 l 435 589 l 375 382 l 597 378 z "},"$":{"ha":633,"x_min":35,"x_max":603,"o":"m 551 336 q 591 264 581 294 q 599 178 601 233 q 570 101 597 138 q 503 38 543 64 q 365 1 456 6 l 365 -8 q 373 -44 368 -28 q 384 -72 378 -60 q 397 -92 390 -83 q 410 -107 404 -101 q 422 -116 417 -112 q 431 -121 428 -119 l 433 -122 l 201 -122 q 218 -114 208 -119 q 247 -79 228 -108 q 269 -8 265 -50 l 269 4 q 138 33 199 13 l 36 69 l 36 261 q 79 155 36 231 q 144 63 122 79 q 269 35 215 42 l 269 436 q 267 438 269 436 q 264 442 265 440 q 194 504 219 481 q 131 572 168 528 q 76 653 94 615 q 67 796 44 722 q 146 906 89 869 q 269 938 196 936 l 269 946 l 269 947 q 259 994 267 972 q 242 1027 251 1015 q 223 1047 232 1039 q 208 1058 214 1056 l 201 1061 l 433 1061 q 428 1058 432 1060 q 413 1047 424 1056 q 394 1027 403 1039 q 376 994 385 1015 q 365 947 368 972 l 365 933 q 568 875 468 919 q 567 824 568 857 q 564 758 565 790 q 563 707 563 725 q 523 800 561 738 q 458 882 485 863 q 392 900 433 892 q 365 904 378 903 l 365 504 q 381 490 369 501 q 436 446 396 478 q 503 389 476 414 q 551 336 531 364 m 158 757 q 169 722 161 739 q 191 686 176 706 q 215 656 206 667 q 244 622 224 644 q 269 594 265 600 l 269 875 l 269 907 q 164 846 182 892 q 158 757 150 810 m 501 165 q 501 184 503 174 q 497 203 500 194 q 488 223 494 213 q 475 242 481 233 q 460 261 469 250 q 443 280 450 272 q 424 299 436 288 q 406 317 413 311 q 385 335 399 324 q 365 353 371 347 l 365 63 l 365 36 q 426 56 399 42 q 476 99 454 71 q 501 165 497 126 z "},"%":{"ha":861,"x_min":14,"x_max":847,"o":"m 351 731 q 302 585 351 646 q 183 525 253 525 q 63 585 113 525 q 14 731 14 646 q 37 835 14 788 q 98 909 60 882 q 182 936 136 936 q 267 909 228 936 q 328 835 306 882 q 351 731 351 788 m 101 699 q 147 575 115 619 q 217 543 178 531 q 263 619 254 554 q 256 761 271 683 q 215 888 242 844 q 151 919 189 931 q 99 842 113 907 q 101 699 86 776 m 558 351 q 583 381 558 351 q 678 411 608 411 q 797 351 747 411 q 846 206 846 290 q 824 103 846 150 q 763 28 801 56 q 678 0 724 0 q 558 60 608 0 q 508 206 508 121 q 558 351 508 290 m 711 17 q 758 94 749 29 q 750 235 767 158 q 710 362 736 318 q 646 394 683 406 q 595 317 608 382 q 597 174 582 251 q 642 49 611 93 q 711 17 672 6 m 633 856 q 572 800 583 836 l 506 563 l 372 92 q 373 53 369 71 q 383 27 376 36 q 397 11 389 18 q 410 3 404 4 l 415 0 l 182 0 q 201 7 189 1 q 238 35 213 13 q 276 92 263 58 l 431 638 l 479 808 l 492 853 l 504 896 l 515 936 l 515 936 l 600 896 l 663 865 l 633 856 z "},"&":{"ha":888,"x_min":21,"x_max":879,"o":"m 706 104 q 750 61 726 81 q 792 31 774 42 q 826 13 811 21 q 851 3 842 6 l 860 1 l 572 1 q 576 3 574 1 q 585 13 579 6 q 594 31 592 21 q 590 61 596 42 q 571 104 585 81 q 558 122 565 113 q 365 15 440 39 q 235 1 314 -4 q 114 42 157 7 q 42 147 63 83 q 31 281 21 211 q 72 399 40 346 q 158 510 104 451 q 163 515 160 511 q 172 524 167 518 q 183 535 176 529 q 195 548 189 542 q 207 560 201 554 q 217 571 213 567 q 160 658 179 619 q 144 828 115 749 q 197 903 161 872 q 276 943 233 933 q 366 944 319 953 q 449 904 413 935 q 492 817 490 869 q 458 725 494 764 q 388 664 443 706 q 326 606 371 650 l 619 218 q 714 506 714 310 l 879 569 q 644 185 801 319 l 706 104 m 283 901 q 240 857 254 889 q 229 790 225 825 q 294 649 236 728 l 304 636 l 304 635 l 304 636 q 326 658 306 636 q 350 682 347 679 q 390 749 375 714 q 403 815 406 778 q 379 876 401 851 q 335 904 361 897 q 283 901 308 911 m 178 139 q 277 92 214 99 q 399 106 340 85 q 468 136 411 110 q 524 164 525 163 q 465 242 504 189 q 407 321 426 296 q 286 482 397 335 q 247 531 274 497 q 214 492 246 533 q 178 440 182 450 q 138 328 149 388 q 140 210 128 268 q 178 139 153 167 z "},"(":{"ha":510,"x_min":39,"x_max":454,"o":"m 350 1086 q 236 971 290 1064 q 156 738 182 878 q 149 458 129 597 q 267 155 174 276 q 454 26 361 33 l 454 -12 q 422 -15 438 -15 q 230 62 318 -15 q 90 272 142 139 q 39 560 39 404 q 90 849 39 717 q 230 1058 142 981 q 422 1135 318 1135 q 454 1133 436 1135 l 454 1069 q 350 1086 401 1106 z "},")":{"ha":510,"x_min":54,"x_max":471,"o":"m 160 33 q 274 149 219 56 q 354 382 328 242 q 361 661 381 522 q 242 965 336 843 q 56 1093 149 1086 l 56 1132 q 88 1135 72 1135 q 280 1058 192 1135 q 419 848 368 981 q 471 559 471 715 q 419 271 471 403 q 280 62 368 139 q 88 -15 192 -15 q 56 -14 72 -15 l 56 50 q 160 33 108 14 z "},"*":{"ha":251,"x_min":18,"x_max":232,"o":"m 150 850 l 160 842 l 208 793 l 161 760 l 131 821 l 125 832 l 119 821 l 89 760 l 42 793 l 90 842 l 100 850 l 88 853 l 19 863 l 38 918 l 99 886 l 110 881 l 107 893 l 96 960 l 154 960 l 143 893 l 140 881 l 153 886 l 213 918 l 231 863 l 163 853 l 150 850 z "},"+":{"ha":606,"x_min":31,"x_max":575,"o":"m 460 650 q 494 656 478 651 q 522 667 511 661 q 543 681 533 674 q 558 694 553 688 q 567 706 564 701 q 572 715 571 711 l 574 718 l 574 486 q 572 490 574 488 q 567 498 571 492 q 558 510 564 504 q 543 523 553 515 q 522 536 533 531 q 494 547 511 542 q 460 554 478 551 l 350 554 l 350 444 q 361 397 353 418 q 378 365 369 376 q 397 344 388 353 q 413 333 406 336 l 418 331 l 186 331 q 190 332 188 331 q 198 337 192 333 q 210 346 204 340 q 223 361 215 351 q 236 382 231 371 q 247 410 242 393 q 254 444 253 426 l 254 554 l 144 554 q 110 547 126 551 q 82 536 93 542 q 61 524 71 531 q 46 510 51 517 q 37 497 40 503 q 32 489 33 492 l 31 486 l 31 718 q 34 712 32 715 q 44 697 36 708 q 65 678 53 686 q 98 661 76 669 q 144 650 119 653 l 254 650 l 254 758 l 254 760 q 243 806 251 785 q 226 840 235 828 q 208 860 217 851 q 192 871 199 868 l 186 874 l 418 874 q 412 870 415 872 q 398 860 408 868 q 378 840 388 851 q 361 806 369 828 q 350 760 353 785 l 350 650 l 460 650 z "},",":{"ha":192,"x_min":19,"x_max":169,"o":"m 19 153 l 169 153 l 169 83 q 153 3 169 40 q 35 -122 110 -96 l 51 -22 q 138 4 104 -24 q 53 47 88 10 q 19 136 19 85 l 19 153 z "},"-":{"ha":600,"x_min":28,"x_max":572,"o":"m 457 497 q 503 508 482 500 q 537 526 525 517 q 557 545 549 536 q 568 560 565 554 l 571 565 l 571 333 q 569 337 571 335 q 565 345 568 339 q 556 358 561 351 q 540 371 550 364 q 519 384 531 378 q 492 395 508 390 q 457 401 475 400 l 142 401 q 95 391 117 399 q 62 374 74 383 q 42 355 50 364 q 31 340 33 346 l 28 333 l 28 565 q 31 560 29 564 q 42 545 33 556 q 62 526 50 535 q 95 509 74 518 q 142 497 117 500 l 457 497 z "},".":{"ha":190,"x_min":19,"x_max":169,"o":"m 19 153 l 169 153 l 169 83 q 153 3 169 40 l 138 4 q 53 47 88 10 q 19 136 19 85 l 19 153 z "},"/":{"ha":618,"x_min":56,"x_max":563,"o":"m 532 954 q 472 897 482 933 l 379 563 l 378 563 l 246 92 q 245 53 242 71 q 256 27 249 36 q 269 11 263 18 q 282 3 276 4 l 288 0 l 56 0 q 74 7 63 1 q 110 35 85 13 q 150 92 136 58 l 304 638 l 379 907 l 392 951 l 404 994 l 415 1035 l 415 1035 l 500 993 l 563 963 l 532 954 z "},":":{"ha":207,"x_min":26,"x_max":193,"o":"m 26 349 l 163 349 q 160 199 193 272 l 144 200 q 60 243 94 206 q 26 332 26 281 l 26 349 m 144 451 q 60 494 94 457 q 26 583 26 532 l 26 600 l 163 600 q 160 450 193 524 l 144 451 z "},";":{"ha":215,"x_min":32,"x_max":199,"o":"m 32 349 l 182 349 l 182 279 q 165 199 182 236 q 47 74 122 100 l 64 174 q 150 200 117 172 q 90 222 117 203 q 47 269 63 240 q 32 332 32 299 l 32 349 m 150 451 q 66 494 100 457 q 32 583 32 532 l 32 600 l 168 600 q 165 450 199 524 l 150 451 z "},"=":{"ha":622,"x_min":39,"x_max":583,"o":"m 468 494 q 503 501 486 496 q 531 512 519 506 q 551 525 542 518 q 567 539 561 532 q 576 551 572 546 q 581 560 579 556 l 582 563 l 582 331 q 580 336 582 332 q 569 351 578 340 q 548 370 560 361 q 515 388 536 379 q 468 399 493 396 l 153 399 q 106 388 128 396 q 73 370 85 379 q 53 351 61 361 q 42 336 44 342 l 39 331 l 39 563 q 42 556 40 560 q 53 541 44 551 q 73 522 61 531 q 106 506 85 514 q 153 494 128 497 l 468 494 m 468 790 q 503 798 486 793 q 531 809 519 803 q 551 822 542 815 q 567 835 561 829 q 576 847 572 842 q 581 856 579 853 l 582 858 l 582 626 q 580 633 582 629 q 569 648 578 638 q 548 667 560 658 q 515 683 536 675 q 468 694 493 692 l 153 694 q 106 684 128 692 q 73 667 85 676 q 53 648 61 657 q 42 633 44 639 l 39 626 l 39 858 q 40 855 39 857 q 46 847 42 853 q 55 835 50 840 q 69 822 60 829 q 90 808 79 814 q 118 798 101 803 q 153 790 135 793 l 468 790 z "},"?":{"ha":733,"x_min":54,"x_max":724,"o":"m 701 733 q 696 565 724 649 q 596 438 668 482 q 494 383 568 419 q 340 286 361 315 q 346 246 325 263 q 340 240 344 243 q 319 231 336 236 q 278 236 301 225 q 258 247 263 242 q 254 272 251 257 q 331 365 263 311 q 416 426 350 381 q 519 507 482 471 q 576 590 557 543 q 592 670 592 626 q 582 756 593 714 q 548 839 571 799 q 494 909 525 879 q 424 958 464 939 q 343 976 385 976 q 271 947 303 976 q 222 871 239 917 q 193 772 204 825 q 183 673 182 719 q 188 593 183 626 q 57 671 57 671 q 56 687 54 672 q 58 715 57 701 q 61 732 60 729 q 125 868 75 803 q 275 980 185 946 q 457 988 365 1014 q 611 892 544 961 q 701 733 678 822 m 294 188 q 367 189 322 233 l 451 47 q 447 44 450 46 q 438 36 444 43 q 425 22 431 29 q 413 1 419 14 q 405 -25 407 -11 q 404 -57 403 -39 q 413 -94 406 -75 l 340 -12 q 337 -8 339 -11 q 331 7 335 -6 q 338 40 328 19 q 349 66 342 49 q 360 95 356 83 q 369 121 365 107 q 373 144 374 135 q 368 161 372 154 q 342 178 360 171 q 308 186 324 185 l 294 188 z "},"@":{"ha":1256,"x_min":35,"x_max":1232,"o":"m 633 1135 q 849 1092 743 1135 q 1039 974 956 1049 q 1160 817 1113 906 q 1219 632 1207 729 q 1206 436 1232 533 q 1118 263 1179 339 q 982 175 1054 183 q 873 203 925 167 q 790 296 821 239 q 638 160 719 188 q 524 157 582 142 q 424 214 465 172 q 381 276 397 240 q 360 350 364 313 q 363 426 356 388 q 372 453 365 444 q 392 467 378 458 q 557 551 447 494 q 722 635 667 607 q 750 656 743 646 q 757 694 757 667 q 743 808 757 772 q 710 856 732 836 q 661 879 688 876 q 558 825 607 885 q 544 806 551 817 q 530 786 536 796 q 517 767 524 776 q 502 747 510 757 q 486 729 494 738 q 454 758 472 742 q 418 792 436 775 q 386 821 400 808 q 668 906 511 918 q 741 890 707 901 q 804 853 775 878 q 846 797 833 829 q 857 701 857 767 q 853 537 856 647 q 850 372 851 426 q 868 282 849 307 q 920 251 886 257 q 982 261 954 246 q 1063 351 1031 283 q 1096 622 1121 474 q 1012 842 1075 739 q 847 1018 949 946 q 628 1103 746 1090 q 430 1051 524 1114 q 272 888 336 988 q 176 665 204 783 q 172 433 149 546 q 251 241 193 332 q 394 81 310 150 q 455 36 424 57 q 527 -6 486 15 q 606 -38 568 -28 q 685 -51 643 -49 q 760 -37 726 -53 q 811 17 783 -28 q 822 36 811 17 q 842 68 833 56 q 858 81 851 81 l 1032 93 q 838 -28 944 22 q 633 -78 731 -78 q 333 3 471 -78 q 115 224 194 83 q 35 528 35 364 q 115 833 35 693 q 333 1053 194 972 q 633 1135 471 1135 m 757 319 l 757 618 q 750 622 760 631 q 744 618 747 621 l 493 438 l 481 418 q 478 402 479 413 q 482 365 478 392 q 497 317 486 339 q 534 275 507 296 q 600 247 561 254 q 750 306 700 228 q 757 319 757 319 z "},"A":{"ha":846,"x_min":-26,"x_max":872,"o":"m 599 -4 l 599 -3 l 600 -3 l 599 -4 m 713 -4 l 713 -3 l 714 -3 l 713 -4 m 814 50 q 829 30 821 39 q 844 15 838 21 q 858 6 851 10 q 868 1 864 3 q 872 0 872 0 l 724 0 l 724 0 l 649 0 q 704 46 682 11 l 543 428 l 313 264 l 179 263 l 110 85 l 103 65 q 96 49 100 58 q 111 30 103 39 q 126 15 119 21 q 140 6 133 10 q 150 1 146 3 l 153 0 l 83 0 l -26 0 q -13 6 -21 1 q 13 26 -6 10 q 39 67 31 43 l 54 101 l 78 160 l 176 399 l 343 825 l 347 838 q 225 860 250 869 l 336 918 l 365 932 l 369 935 q 399 910 379 921 l 436 893 q 460 890 453 889 l 814 50 m 192 296 l 529 460 l 453 642 l 425 707 l 390 789 l 374 750 l 276 511 l 192 296 z "},"Á":{"ha":846,"x_min":-26,"x_max":872,"o":"m 599 -4 l 599 -3 l 600 -3 l 599 -4 m 713 -4 l 713 -3 l 714 -3 l 713 -4 m 814 50 q 829 30 821 39 q 844 15 838 21 q 858 6 851 10 q 868 1 864 3 q 872 0 872 0 l 724 0 l 724 0 l 649 0 q 704 46 682 11 l 543 428 l 313 264 l 179 263 l 110 85 l 103 65 q 96 49 100 58 q 111 30 103 39 q 126 15 119 21 q 140 6 133 10 q 150 1 146 3 l 153 0 l 83 0 l -26 0 q -13 6 -21 1 q 13 26 -6 10 q 39 67 31 43 l 54 101 l 78 160 l 176 399 l 343 825 l 347 838 q 225 860 250 869 l 336 918 l 365 932 l 369 935 q 399 910 379 921 l 436 893 q 460 890 453 889 l 814 50 m 192 296 l 529 460 l 453 642 l 425 707 l 390 789 l 374 750 l 276 511 l 192 296 z "},"B":{"ha":703,"x_min":13,"x_max":694,"o":"m 494 524 q 638 421 583 492 q 693 261 693 350 q 602 64 693 146 q 382 -18 511 -18 q 171 54 260 -18 l 168 40 q 151 10 165 22 q 119 -1 138 -1 l 14 -1 q 26 3 19 0 q 49 22 33 7 q 74 58 65 38 l 85 113 l 85 563 l 85 800 q 40 856 83 836 l 13 865 l 85 896 l 85 896 l 181 936 l 181 936 l 181 867 q 319 924 243 924 q 489 833 418 924 q 560 615 560 743 q 558 601 560 608 q 557 578 558 593 q 556 572 557 576 q 556 567 556 568 l 524 544 l 494 524 m 364 899 q 253 847 307 917 q 182 660 200 776 q 181 656 181 658 q 181 651 181 653 l 181 417 l 196 424 q 196 422 196 424 l 201 424 l 215 431 l 390 517 l 435 538 l 449 544 l 465 553 q 468 565 467 556 l 468 567 q 455 781 488 682 q 364 899 422 879 m 443 6 q 566 110 519 22 q 589 301 613 199 q 446 489 565 401 l 285 374 l 228 374 l 219 374 l 192 374 l 181 374 l 181 261 q 188 218 182 239 q 290 51 211 114 q 443 6 368 -12 z "},"C":{"ha":708,"x_min":21,"x_max":710,"o":"m 593 158 l 708 186 q 576 52 656 101 q 404 3 496 3 q 256 40 326 3 q 133 139 185 76 q 51 288 82 201 q 21 470 21 375 q 51 651 21 565 q 133 800 82 738 q 256 899 185 863 q 404 936 326 936 q 553 900 483 936 q 676 797 624 864 l 567 724 q 498 831 536 788 q 417 892 460 875 q 332 897 374 910 q 247 837 288 883 q 177 722 206 790 q 138 569 149 654 q 142 396 126 485 q 220 193 161 283 q 350 63 279 103 q 481 42 421 24 q 593 158 550 63 z "},"D":{"ha":747,"x_min":13,"x_max":743,"o":"m 376 897 q 574 815 488 885 q 701 638 661 746 q 725 411 742 531 q 650 214 710 304 q 579 131 619 168 l 556 114 l 481 60 l 310 1 l 253 1 l 246 1 l 211 1 l 194 1 l 149 0 l 133 0 q 119 -1 125 -1 l 14 -1 q 26 3 19 0 q 49 22 33 7 q 74 58 65 38 l 85 113 l 85 563 l 85 800 q 40 856 83 836 l 13 865 l 85 896 l 85 896 l 181 936 l 181 936 l 181 900 q 281 901 210 903 q 376 897 351 900 m 457 119 l 458 121 q 459 122 458 121 q 460 122 460 122 q 457 119 458 122 m 463 126 q 565 298 524 203 q 601 493 606 393 q 566 651 596 576 q 493 775 536 725 q 397 851 450 825 q 294 869 344 876 q 269 869 293 868 q 217 869 244 869 q 181 869 189 869 l 181 808 l 181 689 l 181 113 l 171 54 l 168 40 q 160 19 167 28 q 142 4 153 10 l 196 14 l 450 118 l 463 126 z "},"E":{"ha":647,"x_min":11,"x_max":649,"o":"m 199 38 l 206 36 l 603 60 l 567 0 l 15 0 q 21 3 17 1 q 35 11 25 4 q 55 27 46 18 q 72 53 64 36 q 83 92 81 71 l 83 563 l 83 800 q 39 856 83 836 l 11 865 l 83 896 l 179 936 l 179 936 l 179 897 l 206 890 l 549 890 l 550 889 l 561 889 q 560 883 561 886 q 560 869 560 879 q 563 848 561 858 q 572 824 565 838 q 587 801 578 811 q 611 781 596 790 q 647 767 626 771 l 529 744 q 526 744 528 744 q 520 743 525 743 q 510 745 515 743 q 499 754 506 747 q 485 772 492 761 q 469 805 481 782 q 451 839 458 828 l 188 854 l 179 847 l 179 808 l 179 638 l 179 410 l 188 414 l 204 422 l 208 424 l 222 431 l 397 515 l 442 538 l 456 544 l 472 553 l 497 565 l 551 592 q 567 601 560 593 q 565 578 565 593 q 563 572 564 576 q 563 567 563 568 l 531 544 l 501 524 l 483 511 l 453 489 l 292 374 l 235 374 l 228 374 l 193 374 l 179 374 l 179 92 q 199 38 183 61 z "},"F":{"ha":639,"x_min":11,"x_max":649,"o":"m 551 592 q 567 601 560 593 q 565 578 565 593 q 563 572 564 576 q 563 567 563 568 l 531 544 l 501 524 l 483 511 l 453 489 l 292 374 l 235 374 l 228 374 l 193 374 l 179 374 l 179 92 q 190 53 182 71 q 208 27 199 36 q 226 11 217 18 q 242 3 235 4 l 247 0 l 15 0 q 21 3 17 1 q 35 11 25 4 q 55 27 46 18 q 72 53 64 36 q 83 92 81 71 l 83 563 l 83 800 q 39 856 83 836 l 11 865 l 83 896 l 179 936 l 179 936 l 179 897 l 206 890 l 549 890 l 550 889 l 561 889 q 561 885 561 888 q 561 876 561 883 q 562 863 561 869 q 565 845 563 856 q 570 826 567 835 q 581 808 574 818 q 597 791 588 799 q 619 777 606 783 q 647 767 632 771 l 529 744 q 526 744 528 744 q 523 743 525 743 q 518 743 521 743 q 513 744 515 743 q 506 747 510 744 q 499 753 503 750 q 492 761 496 756 q 485 772 489 767 q 469 805 481 782 q 451 839 458 828 l 188 854 l 179 847 l 179 808 l 179 638 l 179 410 l 188 414 l 204 422 l 208 424 l 222 431 l 397 515 l 442 538 l 456 544 l 472 553 l 497 565 l 551 592 z "},"G":{"ha":769,"x_min":21,"x_max":757,"o":"m 756 0 l 688 0 l 592 0 l 524 0 q 535 4 528 1 q 558 22 542 7 q 582 56 574 36 q 404 3 499 3 q 212 65 300 3 q 72 235 124 128 q 21 470 21 343 q 72 704 21 597 q 212 874 124 811 q 404 936 300 936 q 481 926 443 936 q 554 899 519 917 q 619 856 589 881 q 676 797 650 831 l 567 724 q 498 831 536 788 q 417 892 460 875 q 332 897 374 910 q 247 837 288 883 q 177 722 206 790 q 138 569 149 654 q 142 396 126 485 q 220 193 161 283 q 350 63 279 103 q 481 42 421 24 q 592 157 549 63 l 592 472 l 454 374 l 397 374 l 389 374 l 354 374 l 339 374 l 292 374 l 265 372 l 265 374 l 296 388 l 317 399 l 319 400 l 349 414 l 365 422 l 371 424 l 385 431 l 558 515 l 592 532 l 604 538 l 618 544 l 635 553 l 658 565 l 688 579 l 714 592 q 728 601 721 593 q 726 578 728 593 q 726 572 726 576 q 725 567 725 568 l 693 544 l 688 540 l 688 92 q 699 53 690 71 q 717 27 707 36 q 735 11 726 18 q 750 3 744 4 l 756 0 z "},"H":{"ha":729,"x_min":11,"x_max":724,"o":"m 654 92 q 665 53 657 71 q 683 27 674 36 q 701 11 692 18 q 717 2 711 4 q 722 0 722 0 l 490 0 q 497 3 493 1 q 512 11 501 4 q 531 27 522 18 q 547 53 539 36 q 558 92 556 71 l 558 563 l 558 564 l 531 544 l 501 524 l 483 511 l 453 489 l 292 374 l 235 374 l 228 374 l 193 374 l 179 374 l 179 92 q 190 53 182 71 q 208 27 199 36 q 226 11 217 18 q 242 3 235 4 l 247 0 l 15 0 q 17 1 15 0 q 22 3 18 1 q 31 8 26 6 q 40 14 35 10 q 51 23 46 18 q 61 35 56 28 q 71 50 67 42 q 78 69 75 58 q 83 92 82 79 l 83 563 l 83 800 q 39 856 83 836 l 11 865 l 83 896 l 179 936 l 179 936 l 179 808 l 179 638 l 179 410 l 188 414 l 204 422 l 208 424 l 222 431 l 397 517 l 442 538 l 456 544 l 472 553 l 497 565 l 551 592 q 558 594 554 592 l 558 800 q 514 856 558 836 l 486 865 l 558 896 l 654 936 l 654 936 l 654 808 l 654 638 l 654 92 z "},"I":{"ha":261,"x_min":14,"x_max":247,"o":"m 178 90 q 201 35 183 58 q 231 6 218 13 q 246 0 243 0 l 14 0 q 20 3 17 1 q 35 11 24 4 q 54 27 46 18 q 71 53 63 36 q 82 92 79 71 l 82 563 l 82 846 q 60 901 76 879 q 28 931 43 924 l 14 936 l 246 936 q 242 935 244 936 q 234 931 240 935 q 222 924 228 928 q 209 912 217 919 q 196 895 201 904 q 185 873 190 886 q 178 844 181 860 l 178 374 l 178 90 z "},"J":{"ha":489,"x_min":-8,"x_max":438,"o":"m 314 290 l 315 290 l 315 289 l 314 290 m 438 163 q 436 90 438 97 q 422 42 433 63 q 415 31 419 36 q 346 -22 390 -7 q 344 -23 346 -22 q 342 -25 342 -24 l 342 -24 q 192 -18 274 -46 q 126 10 157 -7 q 120 14 126 11 q 107 21 114 17 q 91 30 100 25 q 74 40 82 35 q 60 49 67 44 q 49 58 53 54 q 46 64 46 61 l 132 146 q 197 28 165 67 q 253 -10 229 -11 q 297 14 278 -10 q 326 77 315 38 q 342 161 338 117 l 342 800 q 314 846 340 828 l 189 839 q 172 805 183 828 q 156 772 160 782 q 135 747 146 754 q 118 743 124 740 l 111 744 l -7 767 q 40 788 21 774 q 67 819 60 803 q 78 852 75 836 q 81 878 81 868 l 79 889 l 92 889 l 92 890 l 436 890 l 438 890 l 438 853 l 436 808 l 436 293 l 438 293 q 438 163 438 185 z "},"K":{"ha":697,"x_min":13,"x_max":713,"o":"m 592 90 q 645 35 614 57 q 692 6 676 13 q 711 -1 708 -1 l 643 -1 q 642 1 643 0 l 642 0 l 643 -1 l 536 -1 l 468 -1 q 472 1 469 0 q 482 10 475 3 q 492 26 489 17 q 494 53 494 36 q 483 90 493 69 l 275 456 l 181 325 l 181 90 q 192 53 183 69 q 209 26 200 36 q 227 10 218 17 q 243 1 236 4 l 249 -1 l 17 -1 q 23 1 19 0 q 37 10 26 3 q 56 26 47 17 q 74 53 65 36 q 85 90 82 69 l 85 564 l 85 800 q 40 857 85 836 l 13 865 l 13 865 l 85 896 l 181 938 l 181 938 l 181 810 l 181 638 l 181 478 l 465 846 q 483 884 478 867 q 485 910 488 901 q 480 926 483 919 q 472 935 476 933 l 467 938 l 536 938 l 643 938 q 642 936 643 938 l 643 938 l 711 938 q 690 931 703 936 q 640 902 676 925 q 572 846 603 879 l 572 846 l 342 529 l 347 519 l 590 90 l 592 90 z "},"L":{"ha":633,"x_min":13,"x_max":650,"o":"m 649 124 q 601 102 621 117 q 574 71 582 88 q 564 38 567 54 q 562 12 561 22 q 563 1 563 1 l 551 1 l 551 0 l 85 0 l 85 0 l 17 0 q 23 2 19 0 q 37 11 26 4 q 56 27 47 18 q 74 53 65 36 q 85 92 82 71 l 85 563 l 85 800 q 40 856 85 836 l 13 865 l 85 896 l 181 936 l 181 936 l 181 808 l 181 638 l 181 92 q 201 38 185 60 l 453 51 q 471 85 460 63 q 486 118 482 108 q 507 143 496 136 q 525 147 518 150 l 531 146 l 649 124 z "},"M":{"ha":882,"x_min":13,"x_max":869,"o":"m 821 38 q 869 0 842 8 l 706 0 l 706 0 l 638 0 q 643 2 639 0 q 658 11 647 4 q 676 27 668 18 q 694 53 685 36 q 706 92 703 71 l 706 563 l 704 563 l 704 743 l 658 661 l 632 614 l 597 550 l 581 519 l 468 313 q 476 297 467 310 q 494 271 485 283 l 506 260 l 444 260 l 382 260 l 382 260 l 139 699 l 139 563 l 138 563 l 138 92 q 158 38 143 60 q 180 15 168 24 q 199 3 192 6 l 207 0 l 85 0 l 85 0 l 17 0 q 20 1 18 0 q 28 5 22 1 q 40 13 35 8 q 53 24 46 17 q 67 41 61 32 q 77 63 72 50 q 85 92 82 76 l 85 563 l 85 800 q 57 846 85 828 q 39 856 49 851 l 13 865 l 85 896 l 138 918 l 139 918 l 443 353 l 557 565 l 574 594 l 588 618 l 635 706 l 699 824 q 660 856 688 843 l 633 865 l 704 896 l 800 936 l 801 936 l 800 906 l 801 906 l 800 906 l 800 808 l 800 638 l 801 638 l 801 92 q 821 38 806 60 z "},"N":{"ha":708,"x_min":11,"x_max":661,"o":"m 660 0 l 653 0 l 600 0 l 600 0 l 531 0 q 532 0 532 0 l 138 699 l 138 563 l 136 563 l 136 92 q 157 38 142 60 q 178 15 167 24 q 197 3 190 6 l 206 0 l 83 0 l 83 0 l 15 0 q 21 2 17 0 q 35 11 25 4 q 55 27 46 18 q 72 53 64 36 q 83 92 81 71 l 83 563 l 83 800 q 56 846 83 828 q 38 856 47 851 l 11 865 l 83 896 l 136 918 l 138 918 l 600 107 l 600 563 l 599 563 l 599 800 q 571 846 599 828 q 553 856 563 851 l 528 865 l 599 896 l 600 896 l 653 918 l 653 918 l 653 563 l 653 13 l 660 0 z "},"O":{"ha":803,"x_min":19,"x_max":782,"o":"m 210 851 q 253 882 210 851 q 401 913 297 913 q 592 851 504 913 q 731 682 679 789 q 782 449 782 575 q 731 217 782 324 q 592 48 679 110 q 401 -14 504 -14 q 210 48 297 -14 q 72 217 122 110 q 21 449 21 324 q 72 682 21 575 q 210 851 122 789 m 478 25 q 561 84 522 39 q 626 196 600 129 q 661 345 651 263 q 656 515 671 428 q 604 676 640 601 q 522 797 568 750 q 425 866 476 844 q 331 874 374 888 q 245 813 286 860 q 176 699 204 767 q 136 549 147 632 q 140 376 125 465 q 218 175 160 264 q 347 47 276 86 q 478 25 418 7 z "},"P":{"ha":629,"x_min":14,"x_max":624,"o":"m 267 900 q 419 883 351 900 q 526 838 486 867 q 592 770 567 808 q 621 689 618 732 q 615 600 624 646 q 540 479 600 533 q 469 426 511 450 l 447 417 l 372 383 l 286 346 l 229 346 l 221 346 l 186 346 l 182 346 l 182 114 l 182 111 l 182 92 q 201 38 186 60 q 223 15 211 24 q 242 3 235 6 l 250 0 l 182 0 l 124 0 q 121 0 122 0 l 18 0 q 24 2 19 0 q 38 11 28 4 q 57 27 49 18 q 74 53 65 36 q 86 92 83 71 q 86 92 86 92 l 86 564 l 86 801 q 42 857 85 838 l 14 867 l 86 897 l 86 897 l 182 939 l 182 938 l 182 939 l 182 900 q 267 900 183 900 m 349 421 q 358 428 351 424 q 401 461 386 449 q 442 498 417 474 q 481 543 467 522 q 505 592 494 564 q 515 651 515 621 q 459 775 514 718 q 328 860 404 832 q 185 882 253 889 l 183 882 l 182 882 l 182 810 l 182 690 l 182 371 l 189 372 l 197 375 l 203 376 l 217 381 l 349 421 z "},"Q":{"ha":807,"x_min":19,"x_max":817,"o":"m 769 -3 q 766 -13 768 -7 q 761 -38 764 -19 q 760 -74 758 -57 q 776 -110 763 -90 q 815 -144 790 -131 l 696 -131 q 689 -131 693 -131 q 676 -121 685 -131 q 663 -90 667 -111 q 656 -56 660 -81 q 650 -17 653 -31 l 549 22 q 401 -14 478 -14 q 253 23 324 -14 q 132 122 183 60 q 51 269 81 183 q 21 450 21 356 q 72 682 21 575 q 210 851 122 789 q 401 913 297 913 q 592 851 504 913 q 731 682 679 789 q 782 450 782 575 q 732 220 782 325 q 599 53 682 115 l 760 3 l 760 0 l 769 -3 m 478 25 q 506 38 492 29 l 414 72 l 404 76 l 393 74 l 389 72 l 383 69 l 399 117 l 546 69 q 630 257 604 135 q 632 515 656 379 q 511 796 601 690 q 331 874 421 901 q 223 783 271 856 q 154 600 175 710 q 153 376 133 490 q 204 218 168 292 q 285 99 240 144 q 382 32 331 53 q 478 25 433 11 z "},"R":{"ha":714,"x_min":14,"x_max":726,"o":"m 726 0 l 646 0 q 644 3 646 1 l 646 1 l 646 0 l 456 0 q 462 3 458 1 q 473 13 465 4 q 485 31 481 21 q 487 62 489 42 q 475 106 485 82 l 475 107 l 328 364 l 325 364 l 286 346 l 229 346 l 221 346 l 186 346 l 182 346 l 182 114 l 182 111 l 182 92 q 201 38 186 60 q 223 15 211 24 q 242 3 235 6 l 250 0 l 182 0 l 124 0 q 121 0 122 0 l 18 0 q 24 2 19 0 q 38 11 28 4 q 57 27 49 18 q 74 53 65 36 q 86 92 83 71 q 86 92 86 92 l 86 564 l 86 801 q 42 857 85 838 l 14 867 l 86 897 l 86 897 l 182 939 l 182 938 l 182 939 l 182 900 q 224 901 186 901 q 267 900 263 900 q 460 867 381 901 q 577 774 540 832 q 615 638 614 715 q 592 555 615 604 q 540 479 569 506 q 469 426 511 450 l 447 417 l 417 403 l 585 108 q 585 108 585 108 q 585 107 585 107 q 586 107 586 107 q 648 42 613 68 q 704 7 683 15 l 726 0 m 304 407 l 349 421 q 376 442 371 438 q 389 451 385 449 q 481 544 447 497 q 515 651 515 592 q 459 775 514 718 q 328 860 404 832 q 185 882 253 889 q 183 882 183 882 q 182 882 182 882 l 182 810 l 182 690 l 182 371 l 189 372 l 197 375 l 203 376 l 217 381 l 301 407 l 304 407 z "},"S":{"ha":608,"x_min":22,"x_max":590,"o":"m 539 336 q 578 264 568 294 q 586 178 589 233 q 578 137 586 157 q 556 99 569 117 q 526 65 542 81 q 490 38 510 50 q 385 3 451 11 q 252 4 319 -4 q 125 33 185 13 l 24 69 l 24 261 q 67 155 24 231 q 132 63 110 79 q 465 165 444 -32 q 463 206 468 185 q 442 251 457 228 q 413 292 426 274 q 374 333 399 310 q 333 371 349 357 q 290 409 318 385 q 251 442 261 433 q 181 504 207 481 q 119 572 156 528 q 64 653 82 615 q 54 796 32 722 q 133 906 76 869 q 289 938 192 942 q 556 875 424 933 q 553 790 556 853 q 550 707 550 728 q 529 765 549 726 q 486 836 510 803 q 446 882 463 869 q 379 900 421 892 q 322 908 347 906 q 265 908 297 910 q 210 890 233 906 q 175 846 186 874 q 169 757 161 810 q 195 680 176 717 q 248 606 214 643 q 303 549 282 569 q 368 490 325 528 q 424 446 383 478 q 491 389 464 414 q 539 336 518 364 z "},"T":{"ha":753,"x_min":-15,"x_max":768,"o":"m 682 939 q 681 928 681 935 q 683 902 681 921 q 694 868 686 883 q 721 838 701 853 q 768 817 740 822 l 650 794 q 648 794 649 794 q 644 793 647 793 q 639 793 642 793 q 632 794 636 793 q 624 799 628 796 q 615 808 619 801 q 605 822 610 814 q 589 854 600 831 q 571 889 578 878 l 461 894 l 461 890 l 457 894 l 456 894 l 424 897 l 424 690 l 425 690 l 425 114 l 424 111 l 424 92 q 444 38 429 60 q 466 15 454 24 q 485 3 478 6 l 492 0 l 424 0 l 365 0 q 364 0 365 0 l 260 0 q 267 2 263 0 q 281 11 271 4 q 300 27 292 18 q 317 53 308 36 q 328 92 325 71 q 328 92 328 92 l 328 564 l 328 897 l 297 894 l 296 894 l 292 890 l 292 894 l 181 889 q 163 854 175 878 q 147 822 151 831 q 126 797 138 804 q 110 793 115 790 l 103 794 l -15 817 q 32 838 13 822 q 59 869 51 853 q 69 902 67 886 q 72 928 72 918 l 71 939 l 82 939 l 83 940 l 669 940 l 669 939 l 682 939 z "},"U":{"ha":792,"x_min":11,"x_max":785,"o":"m 717 92 q 722 69 718 81 q 729 51 725 58 q 738 36 733 43 q 749 24 743 29 q 759 15 754 18 q 769 8 764 11 q 777 4 774 6 q 783 1 781 3 q 785 1 785 0 l 553 1 q 558 3 554 1 q 573 11 563 4 q 592 28 583 18 q 610 54 601 38 q 621 92 618 71 l 621 186 q 579 143 603 167 q 504 77 556 119 q 413 18 453 35 q 321 -3 376 1 q 218 1 265 -8 q 186 8 200 4 q 179 11 183 10 l 178 11 q 99 76 124 32 q 89 100 93 88 q 86 113 88 106 q 83 153 83 128 l 83 565 l 83 803 q 39 858 83 838 l 11 867 l 11 867 l 83 899 l 179 939 l 179 939 l 179 811 l 179 639 l 179 261 l 179 163 q 202 128 179 146 q 266 100 225 110 q 357 91 307 90 q 469 117 407 92 q 588 192 531 143 l 611 214 q 621 233 618 219 l 621 565 l 621 803 q 576 858 621 838 l 549 867 l 549 867 l 621 899 l 715 939 l 717 939 l 715 811 l 715 639 l 717 639 l 717 92 z "},"Ú":{"ha":792,"x_min":11,"x_max":785,"o":"m 717 92 q 722 69 718 81 q 729 51 725 58 q 738 36 733 43 q 749 24 743 29 q 759 15 754 18 q 769 8 764 11 q 777 4 774 6 q 783 1 781 3 q 785 1 785 0 l 553 1 q 558 3 554 1 q 573 11 563 4 q 592 28 583 18 q 610 54 601 38 q 621 92 618 71 l 621 186 q 579 143 603 167 q 504 77 556 119 q 413 18 453 35 q 321 -3 376 1 q 218 1 265 -8 q 186 8 200 4 q 179 11 183 10 l 178 11 q 99 76 124 32 q 89 100 93 88 q 86 113 88 106 q 83 153 83 128 l 83 565 l 83 803 q 39 858 83 838 l 11 867 l 11 867 l 83 899 l 179 939 l 179 939 l 179 811 l 179 639 l 179 261 l 179 163 q 202 128 179 146 q 266 100 225 110 q 357 91 307 90 q 469 117 407 92 q 588 192 531 143 l 611 214 q 621 233 618 219 l 621 565 l 621 803 q 576 858 621 838 l 549 867 l 549 867 l 621 899 l 715 939 l 717 939 l 715 811 l 715 639 l 717 639 l 717 92 z "},"V":{"ha":869,"x_min":-19,"x_max":886,"o":"m 785 908 q 885 906 831 889 l 803 843 q 799 840 801 842 q 786 835 797 838 q 758 838 775 832 l 438 0 l 410 0 l 78 854 q -19 871 1 879 l 54 908 l 113 939 q 161 906 129 918 q 254 906 204 889 l 206 861 q 248 747 218 826 q 311 578 278 667 q 376 405 344 489 q 429 267 408 321 l 451 211 l 692 857 q 611 871 629 878 l 739 938 q 739 939 739 939 l 743 939 q 785 908 757 921 z "},"W":{"ha":1353,"x_min":-19,"x_max":1369,"o":"m 1269 908 q 1369 906 1315 889 l 1288 843 q 1283 840 1286 842 q 1270 835 1281 838 q 1242 838 1260 832 l 922 0 l 893 0 l 664 592 l 438 0 l 410 0 l 78 854 q -19 871 1 879 l 54 908 l 113 939 q 161 906 129 918 q 254 906 204 889 l 207 861 q 248 747 218 826 q 311 578 278 667 q 376 405 344 489 q 429 267 408 321 l 451 211 l 628 685 l 690 851 l 692 857 q 696 847 693 853 q 703 826 699 838 q 707 815 707 817 q 707 814 707 815 q 711 804 710 806 q 713 801 711 801 q 715 790 714 796 q 716 789 715 790 q 717 788 717 788 q 719 780 718 785 q 722 775 721 775 l 722 774 q 725 765 724 771 q 728 758 726 760 l 935 211 l 1176 857 q 1128 871 1139 868 q 1094 871 1117 874 l 1224 938 q 1224 939 1224 939 l 1228 939 q 1269 908 1242 921 z "},"X":{"ha":625,"x_min":-6,"x_max":633,"o":"m 347 501 q 449 278 400 375 q 531 131 499 181 q 587 51 563 82 q 621 13 611 19 l 632 6 l 474 6 l 308 331 l 300 347 l 285 378 l 121 79 q 88 3 93 29 l -4 3 q 38 67 18 29 l 251 444 l 44 861 q -3 939 18 915 q -4 939 -4 939 l 142 939 q 142 922 140 931 q 158 878 142 911 q 314 567 181 829 l 478 863 q 513 939 506 911 l 604 939 q 561 875 582 913 l 347 501 z "},"Y":{"ha":572,"x_min":-18,"x_max":590,"o":"m 547 875 l 319 482 l 319 93 q 331 56 322 72 q 348 29 339 39 q 366 13 357 19 q 382 4 375 7 l 388 1 l 319 1 l 224 1 l 224 3 l 224 1 l 156 1 q 162 4 158 3 q 176 13 165 6 q 196 29 188 19 q 213 56 204 39 q 224 93 221 72 l 224 94 l 224 457 l 31 861 q -17 939 4 914 l -18 939 l 128 939 q 128 922 126 931 q 144 878 128 911 q 263 640 157 850 q 300 567 288 590 l 319 601 l 464 863 q 499 939 492 911 l 590 939 q 547 875 568 913 z "},"Z":{"ha":607,"x_min":-7,"x_max":617,"o":"m 149 0 l 21 0 l 40 36 l 460 867 l 186 854 q 171 821 181 843 q 157 790 161 799 q 138 764 149 771 q 121 760 126 757 l 114 763 l -6 783 q 40 805 22 790 q 65 836 58 819 q 74 869 71 853 q 75 896 76 885 l 74 906 l 85 906 l 85 907 l 481 908 l 486 908 l 590 910 l 588 864 l 547 796 l 500 699 l 171 43 l 425 54 q 440 88 431 65 q 454 119 450 111 q 466 138 460 131 q 478 147 472 146 q 488 149 483 149 q 494 149 492 150 l 497 147 l 617 125 q 571 105 589 119 q 546 73 553 90 q 537 40 539 56 q 536 14 535 25 l 538 3 l 526 3 l 526 1 l 149 0 z "},"[":{"ha":528,"x_min":26,"x_max":472,"o":"m 190 1021 q 190 794 190 1021 q 190 342 190 568 q 190 114 190 115 q 190 87 190 111 q 190 60 189 63 l 472 92 l 472 -68 q 469 -62 471 -65 q 458 -48 467 -58 q 438 -28 450 -37 q 405 -11 426 -19 q 358 0 383 -3 l 185 0 l 26 0 q 28 1 28 0 q 33 3 29 1 q 42 9 38 6 q 51 17 46 13 q 62 28 57 22 q 72 44 67 35 q 82 63 78 53 q 90 86 86 72 q 94 114 93 100 l 94 1019 l 94 1021 q 83 1067 92 1046 q 66 1101 75 1089 q 48 1121 57 1113 q 32 1132 39 1129 l 26 1135 l 258 1135 l 357 1135 l 358 1135 q 386 1140 372 1136 q 410 1147 400 1143 q 428 1156 419 1151 q 444 1167 438 1161 q 455 1178 450 1172 q 463 1188 460 1183 q 469 1195 467 1192 q 471 1200 471 1199 l 472 1203 l 472 1032 l 193 1082 q 192 1066 193 1081 q 191 1037 192 1051 q 190 1021 190 1022 z "},"\\":{"ha":618,"x_min":56,"x_max":563,"o":"m 146 897 q 86 954 136 933 l 56 963 l 56 963 l 118 993 l 203 1035 l 203 1035 l 214 994 l 226 951 l 239 907 l 314 638 l 468 92 q 506 35 482 58 q 546 7 529 13 l 563 0 l 331 0 q 335 3 332 1 q 348 11 339 4 q 363 27 357 18 q 372 53 368 36 q 372 92 376 71 l 240 563 l 239 563 l 146 897 z "},"]":{"ha":528,"x_min":54,"x_max":501,"o":"m 338 115 l 338 1021 q 336 1051 338 1022 q 335 1082 335 1079 l 56 1032 l 56 1203 q 59 1196 57 1200 q 69 1181 61 1192 q 90 1163 78 1171 q 123 1146 101 1154 q 169 1135 144 1138 l 269 1135 l 501 1135 q 498 1133 500 1135 q 490 1128 496 1132 q 478 1119 483 1124 q 465 1104 472 1114 q 451 1083 457 1094 q 440 1056 446 1072 q 433 1021 435 1039 l 433 1019 l 433 114 q 444 67 436 89 q 462 34 453 46 q 480 14 471 22 q 496 3 489 6 l 501 0 l 343 0 l 169 0 q 123 -11 144 -3 q 90 -28 101 -19 q 69 -47 78 -37 q 58 -62 61 -56 l 56 -68 l 56 92 l 338 60 q 338 87 339 63 q 338 114 338 111 l 338 115 z "},"_":{"ha":1024,"x_min":24,"x_max":1000,"o":"m 886 96 q 933 107 911 99 q 965 124 954 115 q 985 142 976 132 q 997 157 994 153 q 1000 164 999 161 l 1000 -68 q 997 -62 999 -65 q 986 -47 994 -58 q 966 -28 978 -36 q 933 -11 954 -19 q 886 0 911 -3 l 138 0 q 91 -11 113 -3 q 58 -28 69 -19 q 38 -47 46 -37 q 26 -62 29 -56 l 24 -68 l 24 164 q 25 160 24 163 q 31 152 26 158 q 40 140 35 146 q 54 127 44 135 q 75 114 64 119 q 103 103 86 108 q 138 96 119 99 l 885 96 l 886 96 z "},"a":{"ha":568,"x_min":17,"x_max":567,"o":"m 506 61 q 530 25 514 40 q 555 6 546 10 q 565 1 564 1 l 461 1 q 428 13 442 1 q 411 43 414 25 l 403 90 l 397 86 q 375 65 389 78 q 324 27 361 51 q 256 -3 286 3 q 75 46 153 -25 q 33 113 49 69 q 18 195 18 157 q 28 263 18 233 l 378 429 q 400 460 394 435 l 400 511 q 399 519 400 515 q 378 597 396 564 q 271 636 344 660 q 251 626 264 633 q 205 585 239 618 q 142 508 171 553 l 54 592 q 232 664 174 658 q 397 647 354 672 q 440 622 439 624 q 494 519 494 581 l 494 114 l 506 61 m 228 76 q 294 74 267 71 q 344 90 322 76 q 378 115 367 103 q 400 142 390 126 l 400 410 l 389 410 l 135 247 l 124 231 q 123 216 124 225 q 126 183 122 207 q 138 140 129 160 q 170 102 147 121 q 228 76 193 83 z "},"b":{"ha":643,"x_min":0,"x_max":619,"o":"m 344 667 q 538 569 458 667 q 618 334 618 472 q 538 99 618 196 q 344 1 458 1 q 163 86 240 1 l 156 43 q 139 13 153 25 q 107 1 125 1 l 1 1 q 13 6 6 3 q 37 25 21 10 q 61 61 53 40 l 72 115 l 72 321 q 72 334 72 328 q 72 347 72 340 l 72 803 q 28 858 72 838 l 0 868 l 72 899 l 168 939 l 168 939 l 168 811 l 168 692 l 168 588 q 344 667 244 667 m 400 29 q 494 152 464 49 q 502 382 524 256 q 419 583 481 508 q 294 639 358 658 q 191 512 228 618 q 176 282 154 406 q 265 83 197 158 q 400 29 333 8 z "},"c":{"ha":522,"x_min":22,"x_max":515,"o":"m 431 113 l 514 132 q 419 35 476 71 q 297 0 363 0 q 103 98 183 0 q 24 333 24 196 q 60 501 24 424 q 160 622 97 578 q 297 667 222 667 q 443 614 376 667 l 444 614 q 475 596 458 604 q 500 585 492 588 l 510 581 l 492 568 l 413 515 q 335 619 381 585 q 246 639 290 653 q 143 512 181 618 q 127 282 106 406 q 217 83 149 158 q 351 29 286 8 q 431 113 401 44 z "},"d":{"ha":643,"x_min":24,"x_max":640,"o":"m 581 61 q 604 25 589 40 q 629 6 619 10 l 640 1 l 535 1 q 503 13 517 1 q 486 43 489 25 l 479 86 q 297 1 401 1 q 103 99 183 1 q 24 334 24 196 q 103 569 24 472 q 297 667 183 667 q 474 588 397 667 l 474 803 q 429 858 474 838 l 403 868 l 474 899 l 569 939 l 569 939 l 569 811 l 569 347 q 569 334 569 339 q 569 321 569 329 l 569 115 l 581 61 m 467 282 q 467 443 479 368 q 423 572 456 518 q 347 639 390 626 q 223 583 283 658 q 140 382 163 508 q 148 152 118 256 q 242 29 178 49 q 377 83 308 8 q 467 282 446 158 z "},"e":{"ha":539,"x_min":24,"x_max":533,"o":"m 149 282 q 131 264 138 278 q 222 78 156 147 q 351 29 289 10 q 432 113 401 44 l 514 132 q 456 63 489 92 q 381 17 422 33 q 297 0 340 0 q 103 98 183 0 q 24 333 24 196 q 60 501 24 424 q 160 622 97 578 q 297 667 222 667 q 397 642 350 667 q 476 575 444 618 q 513 506 493 553 q 514 451 533 460 l 149 282 m 124 301 q 150 310 138 301 l 421 483 q 401 540 428 488 q 363 596 385 571 q 246 639 306 657 q 146 519 183 619 q 124 301 108 419 z "},"f":{"ha":389,"x_min":6,"x_max":454,"o":"m 169 644 l 204 635 l 396 635 l 358 599 l 188 599 l 169 586 l 169 94 q 191 38 174 61 q 222 10 208 15 l 238 3 l 169 3 l 74 3 l 74 3 l 6 3 q 9 3 7 3 q 17 8 11 4 q 29 15 24 11 q 42 27 35 19 q 56 44 50 35 q 67 66 61 53 q 74 94 72 79 l 74 608 q 67 629 71 617 q 58 676 64 642 q 51 739 51 711 q 175 924 56 874 q 322 933 247 954 q 454 840 397 913 l 356 775 q 354 781 356 776 q 349 797 353 785 q 339 819 344 808 q 325 845 333 831 q 307 872 317 860 q 283 894 297 883 q 255 909 269 904 q 221 913 240 914 q 181 903 201 913 q 119 844 139 886 q 104 762 100 803 q 126 686 108 721 q 169 644 144 651 z "},"g":{"ha":628,"x_min":-29,"x_max":638,"o":"m 542 106 q 617 13 599 74 q 620 -108 636 -47 q 564 -215 604 -169 q 404 -307 506 -282 q 211 -310 303 -332 q 112 -273 157 -297 q 42 -223 67 -249 q 0 -174 17 -197 q -22 -136 -17 -151 l -28 -121 l 71 -65 q 103 -146 81 -106 q 157 -222 125 -186 q 234 -278 189 -257 q 331 -296 279 -299 q 453 -253 400 -292 q 528 -147 507 -214 q 504 -7 558 -53 q 339 31 460 31 q 244 26 286 29 q 208 22 235 25 q 170 17 181 18 q 133 18 160 17 q 72 38 106 21 q 23 82 39 56 q 39 138 7 108 l 164 244 q 80 327 111 276 q 49 438 49 378 q 122 598 49 532 q 297 664 194 664 q 301 664 299 664 q 304 664 304 664 l 303 665 q 306 664 304 664 q 349 660 329 664 q 511 711 450 656 l 590 643 q 585 640 589 642 q 567 632 581 638 q 535 624 553 626 q 490 622 518 621 q 431 628 463 622 q 515 547 483 597 q 546 438 546 496 q 513 323 546 375 q 422 240 479 271 q 297 210 364 210 q 206 226 250 210 q 174 221 188 228 l 104 154 q 147 111 85 117 q 350 124 181 107 q 389 128 372 126 q 542 106 488 133 m 364 607 q 336 633 364 607 q 250 645 308 658 q 165 561 192 632 q 158 404 138 490 q 233 267 178 318 q 347 228 288 215 q 433 313 406 242 q 440 469 460 383 q 364 607 419 556 z "},"h":{"ha":633,"x_min":1,"x_max":629,"o":"m 560 94 q 567 66 563 79 q 578 44 572 53 q 592 27 585 35 q 605 15 599 19 q 617 8 611 11 q 626 4 622 6 q 629 3 629 3 l 396 3 q 403 6 399 4 q 417 14 407 7 q 436 30 428 21 q 453 56 444 39 q 465 94 461 74 l 465 450 q 457 495 464 469 q 431 548 450 521 q 383 588 411 575 q 308 586 356 601 q 203 522 261 571 l 181 501 q 169 468 169 490 l 169 94 q 181 56 172 74 q 198 30 189 39 q 216 14 207 21 q 232 6 225 7 l 238 3 l 6 3 q 12 6 8 4 q 26 14 15 7 q 45 30 36 21 q 63 56 54 39 q 74 94 71 74 l 74 567 l 74 804 q 29 860 74 840 l 1 869 l 74 900 l 169 942 l 169 942 l 169 813 l 169 640 l 169 526 l 175 532 q 257 588 229 569 q 303 619 288 610 q 347 639 318 628 q 400 650 375 650 q 465 638 432 650 q 479 632 472 635 q 521 604 503 621 q 560 522 560 574 l 560 94 z "},"i":{"ha":254,"x_min":11,"x_max":253,"o":"m 179 94 q 184 72 181 82 q 192 53 188 61 q 201 38 196 44 q 212 26 207 31 q 222 17 217 21 q 232 10 228 13 q 240 6 236 7 q 245 3 243 4 q 247 3 247 3 l 179 3 l 83 3 l 83 3 l 15 3 q 22 6 18 4 q 35 14 25 7 q 55 30 46 21 q 72 56 64 39 q 83 94 81 74 l 83 513 q 39 569 83 549 l 11 578 l 11 578 l 83 608 l 179 650 l 179 521 l 179 94 m 228 817 q 251 831 240 824 q 228 817 243 824 m 228 817 q 174 787 199 799 q 122 767 150 775 q 67 759 94 758 q 11 771 39 760 l 90 839 q 228 817 156 781 z "},"j":{"ha":228,"x_min":-215,"x_max":226,"o":"m 178 7 q 178 -125 178 -101 q 176 -196 178 -190 q 163 -244 174 -225 q 156 -257 160 -250 q 86 -310 131 -293 q 84 -310 86 -310 q 82 -311 82 -311 q -68 -304 14 -332 q -133 -276 -104 -293 q -140 -273 -133 -276 q -153 -266 -146 -269 q -169 -257 -160 -262 q -185 -247 -178 -251 q -200 -237 -193 -242 q -210 -228 -207 -232 q -214 -224 -214 -225 l -128 -142 q -62 -259 -94 -219 q -6 -297 -31 -299 q 37 -272 18 -296 q 67 -210 56 -249 q 82 -125 78 -171 l 82 513 q 36 569 81 549 l 10 578 l 82 608 l 176 650 l 176 650 l 178 650 l 176 521 l 176 7 l 178 7 m 225 817 q 172 787 197 799 q 119 767 147 775 q 64 759 92 758 q 8 771 36 760 l 88 839 q 225 817 153 781 z "},"k":{"ha":610,"x_min":6,"x_max":614,"o":"m 614 0 l 544 0 q 544 1 544 0 l 544 0 l 450 0 l 381 0 q 386 3 383 1 q 397 11 389 4 q 408 28 406 18 q 413 53 411 38 q 407 92 415 69 l 235 461 q 211 433 222 449 q 200 419 204 425 l 200 418 l 182 393 q 174 356 175 376 l 174 92 q 195 35 178 58 q 226 7 213 13 l 242 0 l 10 0 q 13 1 11 0 q 22 5 15 1 q 33 13 28 8 q 47 24 39 17 q 60 41 54 32 q 70 63 65 50 q 78 92 75 76 l 78 564 l 78 801 q 33 857 78 838 l 6 867 l 78 897 l 174 939 l 174 939 l 174 810 l 174 638 l 174 419 q 179 425 174 419 q 188 435 185 431 q 200 449 189 436 q 214 464 204 454 q 226 478 224 474 q 233 485 229 481 q 240 493 236 489 q 246 500 244 497 q 253 506 249 501 q 260 514 257 511 q 277 533 267 521 q 290 547 288 544 q 294 553 292 549 q 333 592 321 581 q 371 622 346 604 q 421 644 396 639 q 486 646 453 651 q 501 644 494 646 q 549 626 528 639 q 558 619 554 624 l 501 579 l 469 556 q 400 565 446 575 q 303 519 354 556 l 503 92 l 503 92 q 550 35 522 58 q 596 7 578 13 l 614 0 z "},"l":{"ha":251,"x_min":6,"x_max":242,"o":"m 174 92 q 196 35 178 58 q 226 6 214 13 q 242 0 239 0 l 10 0 q 13 1 11 0 q 22 5 15 1 q 33 13 28 8 q 47 24 39 17 q 60 41 54 32 q 70 63 65 50 q 78 92 75 76 l 78 564 l 78 801 q 33 857 78 838 l 6 867 l 78 897 l 174 939 l 174 939 l 174 810 l 174 638 l 174 92 z "},"m":{"ha":1031,"x_min":11,"x_max":1028,"o":"m 958 93 q 981 37 964 60 q 1011 8 999 14 q 1028 1 1024 1 l 794 1 q 801 4 797 3 q 816 13 806 6 q 835 28 826 19 q 851 55 843 38 q 864 93 860 72 l 864 449 q 856 494 863 468 q 829 547 849 519 q 782 587 810 574 q 707 585 754 600 q 603 521 660 571 l 579 500 q 569 483 574 494 l 569 89 q 592 34 575 57 q 624 4 608 11 l 639 -1 l 406 -1 q 413 0 408 -1 q 427 8 417 1 q 446 25 438 15 q 463 51 454 35 q 475 89 471 68 l 475 444 q 467 490 474 464 q 440 544 460 517 q 393 583 421 571 q 318 581 365 596 q 213 518 271 567 l 190 496 q 179 464 179 485 l 179 89 q 190 51 182 68 q 208 25 199 35 q 226 9 217 15 q 242 0 235 3 l 247 -1 l 15 -1 q 22 0 18 -1 q 35 8 25 1 q 55 25 46 15 q 72 51 64 35 q 83 89 81 68 l 83 271 l 83 508 q 39 564 83 544 l 11 574 l 83 604 l 179 644 l 179 644 l 179 540 l 179 522 l 185 528 q 267 583 239 564 q 301 606 290 600 q 333 624 311 613 q 372 640 354 636 q 410 644 390 644 q 475 633 442 646 q 489 628 482 631 q 531 600 513 615 q 569 526 567 572 l 574 531 q 656 586 628 568 q 690 610 679 603 q 722 628 700 617 q 761 644 743 639 q 799 649 779 649 q 864 636 831 649 q 878 631 871 633 q 919 603 901 619 q 958 521 958 572 l 958 93 z "},"n":{"ha":646,"x_min":10,"x_max":638,"o":"m 568 92 q 591 35 574 58 q 621 6 608 13 q 638 0 633 0 l 404 0 q 411 2 407 0 q 426 11 415 4 q 444 27 436 18 q 461 53 453 36 q 474 92 469 71 l 474 446 q 465 492 472 465 q 439 545 458 518 q 392 585 419 572 q 317 583 364 599 q 211 519 269 568 l 189 497 q 178 465 178 488 l 178 92 q 189 53 181 71 q 206 26 197 36 q 224 10 215 17 q 240 1 233 4 l 246 0 l 14 0 q 20 2 17 0 q 34 11 24 4 q 53 27 44 18 q 71 53 63 36 q 82 92 79 71 l 82 272 l 82 510 q 38 565 82 546 l 10 575 l 10 575 l 82 606 l 178 647 l 178 647 l 178 542 l 178 524 l 183 529 q 265 585 238 567 q 311 615 296 606 q 355 636 326 625 q 408 647 383 647 q 474 635 440 647 q 488 629 481 632 q 529 601 511 618 q 568 519 568 571 l 568 92 z "},"o":{"ha":594,"x_min":24,"x_max":571,"o":"m 297 656 q 434 611 371 656 q 533 490 497 567 q 569 324 569 414 q 490 88 569 185 q 297 -10 410 -10 q 103 88 183 -10 q 24 323 24 185 q 103 558 24 461 q 297 656 183 656 m 351 18 q 445 141 415 38 q 453 371 475 244 q 371 573 432 497 q 246 628 310 649 q 170 562 203 615 q 126 433 138 508 q 126 271 114 358 q 217 73 149 147 q 351 18 286 -1 z "},"p":{"ha":650,"x_min":11,"x_max":626,"o":"m 353 658 q 545 561 465 658 q 625 326 625 464 q 545 90 625 188 q 353 -7 465 -7 q 175 72 251 -7 l 175 -178 q 183 -222 178 -201 q 193 -257 188 -243 q 206 -283 199 -271 q 219 -301 213 -294 q 231 -313 226 -308 q 240 -319 236 -318 l 243 -321 l 11 -321 q 15 -319 13 -321 q 23 -313 17 -318 q 35 -301 29 -308 q 48 -283 40 -294 q 61 -257 56 -271 q 72 -222 67 -243 q 79 -178 78 -201 l 79 307 q 79 326 79 317 q 79 344 79 335 l 79 531 q 39 568 69 554 l 11 578 l 83 608 l 179 650 l 179 583 q 353 658 254 658 m 508 278 q 515 439 522 365 q 478 565 507 513 q 407 631 449 618 q 273 576 342 651 q 182 378 204 501 q 179 353 181 367 l 179 276 l 175 276 q 183 202 176 238 q 202 137 190 167 q 229 83 214 107 q 263 42 244 58 q 301 21 281 26 q 426 76 365 1 q 508 278 488 151 z "},"q":{"ha":653,"x_min":24,"x_max":643,"o":"m 642 578 l 614 568 q 569 513 569 549 l 569 332 q 569 330 569 332 q 569 326 569 328 q 569 322 569 325 q 569 319 569 319 l 569 175 l 569 -231 q 591 -285 574 -262 q 624 -315 608 -308 l 638 -321 l 406 -321 q 413 -319 408 -321 q 427 -311 417 -318 q 446 -294 438 -304 q 463 -268 454 -285 q 474 -231 471 -251 l 474 72 q 297 -7 397 -7 q 103 90 183 -7 q 24 326 24 188 q 103 561 24 464 q 297 658 183 658 q 474 579 397 658 l 474 650 l 475 650 l 569 608 l 642 578 m 467 274 q 467 435 479 361 q 423 564 456 510 q 347 631 390 618 q 223 575 283 650 q 140 374 163 500 q 148 144 118 247 q 242 21 178 40 q 377 75 308 0 q 467 274 446 150 z "},"r":{"ha":453,"x_min":13,"x_max":458,"o":"m 317 660 q 319 655 317 658 q 328 643 321 651 q 342 628 335 635 q 363 614 350 621 q 389 604 375 607 q 421 603 403 601 q 458 614 439 604 l 376 525 q 372 519 375 522 q 356 513 369 517 q 324 521 343 510 q 297 535 314 525 q 269 550 281 544 q 243 560 257 556 q 219 565 229 565 q 203 558 208 564 q 188 540 193 549 q 181 526 182 531 l 181 521 l 181 94 q 191 56 183 74 q 208 30 199 39 q 227 14 218 21 q 242 6 236 7 l 249 3 l 181 3 l 85 3 l 85 3 l 17 3 q 19 3 17 3 q 27 8 21 4 q 40 15 33 11 q 53 27 46 19 q 67 44 61 35 q 77 66 72 53 q 85 94 82 79 l 85 513 q 40 568 85 549 l 13 578 l 85 608 l 181 650 l 181 561 l 317 660 z "},"s":{"ha":460,"x_min":25,"x_max":442,"o":"m 432 183 q 422 91 440 136 q 363 19 403 46 q 240 -7 314 -8 q 100 17 167 -6 l 26 43 l 26 179 q 58 103 26 157 q 104 38 89 49 q 344 110 329 -29 q 342 140 346 125 q 328 172 339 156 q 307 200 317 188 q 278 230 297 213 q 249 257 260 247 q 218 284 239 267 q 190 307 197 301 q 160 333 171 324 q 132 359 150 342 q 101 390 114 376 q 76 422 89 404 q 56 457 64 440 q 48 559 32 507 q 106 636 64 611 q 218 660 147 663 q 410 615 314 657 q 408 556 410 600 q 406 496 406 511 q 376 561 404 517 q 331 619 349 606 q 283 632 313 626 q 175 632 214 646 q 142 606 154 625 q 129 564 129 588 q 189 468 129 519 q 293 374 242 422 q 315 351 299 367 q 341 327 332 336 q 363 305 350 318 q 386 278 376 292 q 404 253 396 265 q 432 183 426 218 z "},"t":{"ha":518,"x_min":-6,"x_max":518,"o":"m 511 138 l 517 108 q 418 39 440 56 q 240 1 321 -26 q 233 3 233 3 q 153 69 178 24 q 138 118 140 90 q 138 119 138 118 q 138 122 138 121 q 138 189 138 126 l 138 567 l 138 611 l -6 611 l 31 647 l 138 647 l 138 804 q 93 860 138 840 l 65 869 l 138 900 l 233 940 l 233 942 l 233 813 l 233 651 l 235 650 l 426 650 l 389 614 l 233 614 l 233 321 l 233 194 q 233 189 233 192 q 243 142 235 167 q 271 91 251 117 q 319 54 290 65 q 393 58 347 43 q 494 121 439 74 l 511 138 z "},"u":{"ha":643,"x_min":7,"x_max":638,"o":"m 578 63 q 638 3 596 17 l 569 3 l 532 3 q 500 15 514 3 q 483 44 486 26 l 471 117 q 360 40 394 63 q 182 1 264 -26 q 94 69 122 21 q 84 101 88 83 q 80 126 81 118 q 80 161 79 135 q 81 190 81 188 q 81 342 81 221 l 81 513 q 36 569 81 549 l 8 578 q 16 581 8 578 q 34 589 24 585 q 55 598 44 593 q 72 606 65 603 l 81 608 l 176 650 q 176 618 176 650 q 176 554 176 586 l 176 521 l 176 194 q 182 158 176 179 q 199 113 188 138 q 231 72 210 88 q 279 51 251 57 q 348 63 307 44 q 438 121 389 81 l 460 143 q 471 175 471 153 l 471 513 q 426 569 471 549 l 400 578 q 407 581 400 578 q 424 589 414 585 q 446 598 435 593 q 464 606 457 603 l 471 608 l 567 650 q 567 618 567 650 q 567 554 567 586 l 567 521 l 567 117 l 578 63 z "},"v":{"ha":715,"x_min":-11,"x_max":724,"o":"m 340 1 l 340 3 l 342 3 l 340 1 m 446 1 l 446 3 l 446 1 m 582 668 q 588 662 583 665 q 605 648 592 658 q 633 633 618 638 q 673 626 649 629 q 724 635 697 624 l 642 572 q 638 569 640 571 q 624 564 635 567 q 597 567 614 561 q 588 543 592 556 l 364 4 l 336 4 l 113 533 q 86 585 99 568 q -11 597 7 610 l 125 668 q 131 662 126 665 q 148 648 135 658 q 176 633 161 638 q 216 626 192 629 q 267 635 240 624 l 204 586 q 203 576 203 581 q 239 485 203 567 l 381 147 l 531 533 q 546 583 543 564 q 446 597 464 610 l 582 668 z "},"w":{"ha":1121,"x_min":-12,"x_max":1129,"o":"m 406 1 l 406 3 l 406 1 m 511 1 l 510 3 l 511 3 l 511 1 m 986 668 q 992 662 989 665 q 1009 648 996 658 q 1038 633 1022 638 q 1077 626 1053 629 q 1128 635 1101 624 l 1046 572 q 1045 570 1046 571 q 1041 567 1044 569 q 1033 565 1038 565 q 1021 564 1029 564 q 1003 567 1013 564 q 992 543 997 557 l 769 4 l 742 4 l 551 456 l 365 4 l 336 4 l 113 533 q 86 585 99 568 q -11 597 7 610 l 125 668 q 131 662 126 665 q 148 648 135 658 q 176 633 161 638 q 216 626 192 629 q 267 635 240 624 l 204 586 q 203 576 203 581 q 239 485 203 567 l 381 147 l 525 518 l 531 533 q 546 581 543 563 q 442 599 464 608 l 574 668 q 580 662 576 665 q 597 648 583 658 q 625 633 610 638 q 665 626 640 629 q 715 635 689 624 l 633 572 q 632 569 633 571 q 624 566 631 568 q 610 564 618 564 q 643 485 613 556 l 786 147 l 936 533 q 951 583 949 565 q 850 597 869 610 l 986 668 m 442 599 l 438 597 q 442 599 439 599 z "},"x":{"ha":447,"x_min":4,"x_max":444,"o":"m 317 1 l 317 3 l 318 3 l 317 1 m 261 367 q 344 203 299 293 q 417 60 390 113 q 444 7 444 7 l 335 7 l 221 232 l 215 243 l 204 264 l 92 58 q 68 4 74 24 l 6 4 q 35 49 21 24 l 182 310 l 39 597 q 6 650 21 635 q 6 651 6 651 l 126 651 q 126 640 125 644 q 138 608 126 632 q 238 413 138 608 l 260 451 l 338 597 q 361 651 357 632 l 425 651 q 396 607 410 632 l 282 406 l 261 367 z "},"y":{"ha":618,"x_min":8,"x_max":568,"o":"m 443 3 l 444 3 l 444 1 l 443 3 m 567 3 q 567 -125 567 -104 q 565 -196 567 -190 q 551 -244 563 -225 q 544 -256 549 -250 q 475 -308 519 -293 q 473 -310 475 -310 q 469 -311 471 -311 q 321 -304 403 -332 q 256 -276 285 -293 q 249 -273 256 -276 q 236 -266 243 -269 q 220 -257 229 -262 q 203 -247 211 -251 q 189 -237 196 -242 q 178 -228 182 -232 q 175 -224 175 -225 l 261 -142 q 326 -258 294 -219 q 383 -297 358 -297 q 426 -272 407 -296 q 456 -210 444 -249 q 471 -125 467 -171 l 471 117 q 360 40 390 60 q 182 1 264 -26 q 94 69 122 21 q 84 100 88 82 q 80 127 81 118 q 80 161 79 136 q 81 190 81 186 q 81 342 81 215 l 81 513 q 36 569 81 549 l 8 578 l 81 608 l 176 650 q 176 637 176 650 q 176 605 176 624 q 176 567 176 586 q 176 535 176 549 l 176 521 l 176 194 q 180 163 176 181 q 192 126 183 146 q 215 88 201 106 q 249 60 228 71 q 297 50 271 50 q 359 68 322 50 q 438 121 396 86 l 460 143 q 471 164 467 150 l 471 513 q 425 569 469 549 l 399 578 l 471 608 l 565 650 l 565 650 l 567 650 l 567 650 q 567 637 567 650 q 567 605 567 624 q 567 567 567 586 q 567 535 567 549 l 567 521 l 567 139 l 567 3 z "},"z":{"ha":440,"x_min":11,"x_max":431,"o":"m 381 101 q 407 161 407 142 q 409 101 407 146 q 411 40 411 56 q 381 28 397 35 q 303 6 343 14 l 122 6 q 121 4 121 6 l 11 4 q 18 14 14 8 q 19 15 18 14 q 25 24 22 19 q 26 26 25 25 q 33 36 29 32 l 33 38 q 40 49 38 43 l 69 100 q 282 574 261 497 q 173 587 233 589 q 60 554 113 585 q 35 496 35 514 q 32 556 33 511 q 29 615 31 600 q 60 628 44 622 q 139 650 99 642 l 303 650 q 303 651 303 651 l 431 651 q 424 642 426 647 q 423 641 424 642 q 422 640 422 640 q 417 632 419 636 q 415 629 417 631 q 408 619 411 625 q 408 618 408 619 q 401 607 404 613 l 372 556 q 147 85 174 160 q 226 70 194 74 q 301 73 258 67 q 381 101 343 79 z "},"{":{"ha":703,"x_min":56,"x_max":649,"o":"m 365 1019 q 151 586 271 728 q 365 114 336 386 q 366 87 367 111 q 365 60 365 63 l 647 92 l 647 -68 q 645 -62 647 -65 q 634 -48 643 -58 q 614 -28 625 -37 q 581 -11 603 -19 q 533 0 560 -3 l 360 0 l 203 0 q 208 3 204 1 q 223 14 213 6 q 242 34 233 22 q 259 67 250 46 q 271 114 268 89 q 56 586 271 322 q 271 1019 199 771 l 271 1021 q 260 1067 268 1046 q 242 1101 251 1089 q 223 1121 232 1113 q 208 1132 214 1129 l 203 1135 l 435 1135 l 433 1135 l 533 1135 q 569 1141 553 1136 q 597 1152 585 1146 q 617 1165 608 1158 q 632 1179 626 1172 q 641 1191 638 1186 q 646 1200 644 1196 l 647 1203 l 647 1032 l 369 1082 q 367 1066 368 1081 q 367 1037 367 1051 q 365 1021 367 1022 l 365 1019 z "},"|":{"ha":286,"x_min":26,"x_max":260,"o":"m 190 1021 q 190 568 190 1021 q 190 114 190 115 q 201 67 193 89 q 219 34 210 46 q 237 14 228 22 q 253 3 246 6 l 258 0 l 26 0 q 28 1 28 0 q 33 3 29 1 q 42 9 38 6 q 51 17 46 13 q 62 28 57 22 q 72 44 67 35 q 82 63 78 53 q 90 86 86 72 q 94 114 93 100 l 94 1019 l 94 1021 q 83 1067 92 1046 q 66 1101 75 1089 q 48 1121 57 1113 q 32 1132 39 1129 l 26 1135 l 258 1135 q 252 1131 256 1133 q 238 1121 249 1129 q 218 1101 226 1113 q 201 1067 210 1089 q 190 1021 193 1046 z "},"}":{"ha":703,"x_min":54,"x_max":649,"o":"m 553 586 q 338 1019 432 728 l 338 1021 q 337 1037 338 1022 q 335 1066 336 1051 q 335 1082 335 1081 l 56 1032 l 56 1203 q 56 1200 56 1201 q 59 1195 57 1199 q 65 1188 61 1192 q 73 1178 68 1183 q 84 1167 78 1172 q 99 1157 90 1163 q 118 1147 108 1151 q 142 1140 128 1143 q 169 1135 156 1136 l 269 1135 l 501 1135 q 498 1133 500 1135 q 490 1128 496 1132 q 478 1119 483 1124 q 465 1104 472 1114 q 451 1083 457 1094 q 440 1056 446 1072 q 433 1021 435 1039 l 433 1019 q 647 586 504 771 q 433 114 432 322 q 444 67 436 89 q 462 34 453 46 q 480 14 471 22 q 496 3 489 6 l 501 0 l 343 0 l 169 0 q 123 -11 144 -3 q 90 -28 101 -19 q 69 -47 78 -37 q 58 -62 61 -56 l 56 -68 l 56 92 l 338 60 q 338 87 339 63 q 338 114 338 111 l 338 115 q 553 586 367 386 z "}," ":{"ha":324,"x_min":0,"x_max":0,"o":""},"¡":{"ha":296,"x_min":40,"x_max":282,"o":"m 281 72 l 40 0 l 94 713 q 127 708 108 707 q 157 713 146 708 l 208 138 q 253 81 208 101 l 281 72 m 175 769 q 79 769 119 756 l 79 838 q 89 918 79 882 l 90 919 l 100 918 q 138 896 121 914 q 165 849 154 878 q 175 786 175 819 l 175 769 z "},"¢":{"ha":538,"x_min":29,"x_max":521,"o":"m 339 108 l 339 76 q 347 44 340 58 q 362 23 354 31 q 377 10 369 15 q 389 3 385 4 l 394 1 l 204 1 q 217 7 210 3 q 240 30 225 11 q 260 76 256 49 l 260 110 q 95 221 161 128 q 29 438 29 314 q 95 656 29 563 q 260 767 161 749 l 260 800 q 251 832 257 818 q 237 853 244 846 q 222 867 229 861 q 208 874 214 872 l 204 875 l 394 875 q 381 869 389 874 q 357 847 372 865 q 339 800 342 828 l 339 768 q 449 719 399 758 l 450 719 q 463 710 456 714 q 477 703 471 706 q 489 697 483 700 q 499 692 494 693 q 508 688 504 690 q 514 686 511 686 l 515 685 l 497 672 l 418 619 q 339 725 385 692 l 339 413 l 339 307 l 339 129 q 357 133 349 131 q 436 217 407 149 l 519 236 q 339 108 450 126 m 132 386 q 181 247 146 308 q 260 154 215 186 l 260 464 l 260 569 l 260 746 q 251 743 254 744 q 149 617 186 724 q 132 386 111 510 z "},"£":{"ha":819,"x_min":1,"x_max":764,"o":"m 763 124 q 678 63 706 113 l 660 8 l 658 1 l 657 1 l 3 1 l 1 0 l 3 1 q 82 57 46 24 q 178 272 178 149 q 171 381 178 331 l 165 417 l 160 417 l 25 417 l 25 489 q 94 489 94 489 l 153 489 q 138 646 138 583 q 222 865 138 782 q 436 949 306 949 q 604 910 542 949 l 536 781 q 500 811 528 785 q 440 858 472 838 q 379 879 407 879 q 307 859 336 879 q 265 802 278 839 q 247 728 251 765 q 242 644 242 692 q 258 489 242 578 l 413 489 l 418 417 l 268 417 l 272 381 q 267 207 281 268 q 251 152 257 169 q 234 108 246 135 q 207 63 222 82 l 582 82 q 600 118 596 111 q 622 143 611 136 q 639 149 633 150 l 644 146 l 763 124 z "},"¥":{"ha":719,"x_min":56,"x_max":664,"o":"m 621 874 l 393 481 l 393 410 l 550 410 l 556 338 l 393 338 l 393 268 l 550 268 l 556 196 l 393 196 l 393 92 q 415 37 397 60 q 446 7 432 14 l 461 0 l 393 0 l 297 0 l 297 1 l 297 0 l 229 0 q 235 3 232 1 q 250 11 239 4 q 269 28 261 18 q 286 54 278 38 q 297 92 294 71 l 297 93 l 297 196 l 163 196 l 163 268 q 232 268 232 268 l 297 268 l 297 338 l 163 338 l 163 410 q 232 410 232 410 l 297 410 l 297 456 l 104 860 q 57 938 78 914 q 56 938 57 938 l 201 938 q 201 921 200 929 q 218 876 201 910 q 336 639 231 849 q 374 565 361 589 l 393 600 l 538 861 q 572 938 565 910 l 664 938 q 621 874 642 911 z "},"§":{"ha":718,"x_min":8,"x_max":721,"o":"m 686 540 q 586 354 686 432 q 626 299 608 336 q 644 219 644 263 q 600 88 644 142 q 492 12 556 35 q 351 -11 428 -11 q 153 2 260 -11 q 8 44 47 15 l 147 140 q 192 101 153 138 q 270 40 231 64 q 350 17 310 17 q 472 77 421 17 q 522 204 522 138 q 482 292 522 258 q 335 364 442 326 q 226 406 269 386 q 143 455 182 426 q 85 521 104 483 q 67 607 67 558 q 94 702 67 654 q 179 788 122 750 q 140 842 156 806 q 122 917 124 878 q 203 1075 122 1015 q 407 1135 285 1135 q 576 1113 472 1135 q 719 1068 681 1090 l 588 996 q 544 1031 578 1001 q 475 1080 510 1061 q 403 1099 440 1099 q 322 1072 360 1099 q 263 1006 283 1044 q 243 932 243 967 q 288 847 243 876 q 435 783 332 818 q 535 746 494 765 q 613 698 576 726 q 667 630 649 669 q 686 540 686 590 m 574 451 q 547 594 585 546 q 436 665 515 636 q 206 769 286 721 q 176 626 169 697 q 194 572 179 596 q 235 529 208 547 q 284 501 261 511 q 340 478 307 490 q 463 427 397 457 q 557 379 529 397 q 558 386 557 379 q 563 403 560 393 q 567 423 565 413 q 571 441 569 433 q 574 451 572 449 z "},"©":{"ha":1158,"x_min":35,"x_max":1124,"o":"m 306 1058 q 368 1096 306 1058 q 578 1135 431 1135 q 851 1058 726 1135 q 1049 849 976 981 q 1122 561 1122 717 q 1049 274 1122 406 q 851 65 976 142 q 578 -11 726 -11 q 306 65 431 -11 q 108 274 181 142 q 35 561 35 406 q 108 849 35 717 q 306 1058 181 981 m 688 60 q 884 199 803 90 q 990 431 965 307 q 980 714 1018 571 q 846 958 942 857 q 674 1065 778 1029 q 476 1075 571 1100 q 349 1002 413 1057 q 237 865 285 947 q 168 682 189 783 q 168 472 147 581 q 251 280 190 368 q 386 140 311 192 q 542 65 461 88 q 688 60 624 43 m 650 257 q 729 340 699 271 l 813 360 q 717 263 774 299 q 594 228 660 228 q 401 326 482 228 q 321 562 321 424 q 401 797 321 700 q 594 894 482 894 q 742 842 675 894 q 761 831 751 836 q 779 821 771 825 q 794 814 788 817 q 804 810 800 811 l 808 808 l 789 796 l 711 743 q 662 819 689 788 q 604 863 635 850 q 543 867 574 875 q 441 740 478 846 q 425 510 404 633 q 515 311 446 386 q 650 257 583 236 z "},"ª":{"ha":254,"x_min":11,"x_max":249,"o":"m 224 876 q 249 850 231 856 l 204 850 q 183 868 186 850 l 179 889 l 176 886 q 117 849 146 854 q 40 869 72 839 q 17 916 22 885 q 19 961 11 947 l 168 1033 q 178 1046 176 1035 l 178 1067 q 178 1071 178 1069 q 168 1104 176 1090 q 124 1121 154 1131 q 68 1067 96 1108 l 31 1101 q 107 1132 82 1131 q 176 1126 158 1136 q 194 1115 194 1115 q 218 1071 218 1097 l 218 899 l 224 876 m 104 882 q 178 910 156 872 l 178 1025 l 174 1024 l 65 956 l 60 947 q 60 942 60 946 q 61 928 60 938 q 67 910 63 918 q 81 893 71 901 q 104 882 90 885 z "},"«":{"ha":444,"x_min":28,"x_max":418,"o":"m 57 453 q 85 427 61 450 q 116 398 110 404 q 144 371 122 392 q 172 340 165 350 q 194 309 179 329 q 215 274 210 289 q 226 240 221 260 q 233 201 232 221 l 67 285 q 65 351 75 310 q 42 424 56 393 l 28 453 q 67 619 83 569 l 233 703 q 226 664 232 683 q 215 630 221 644 q 194 595 210 615 q 172 565 179 575 q 144 533 165 556 q 117 506 122 511 q 85 478 111 501 q 57 453 60 454 m 242 453 q 269 427 244 450 q 301 398 294 404 q 328 371 307 392 q 356 340 349 350 q 378 309 364 329 q 399 274 393 289 q 411 240 406 260 q 418 201 417 221 l 250 285 q 254 324 256 301 q 246 368 253 346 q 231 409 239 390 q 218 440 224 428 l 213 453 q 250 619 268 569 l 418 703 q 413 669 417 686 q 401 637 410 653 q 387 608 393 621 q 367 578 381 594 q 344 551 353 561 q 319 524 336 542 q 294 500 301 507 q 267 475 286 493 q 242 453 247 457 z "},"­":{"ha":0,"x_min":0,"x_max":0,"o":""},"®":{"ha":513,"x_min":24,"x_max":488,"o":"m 256 1135 q 372 1102 318 1135 q 456 1013 425 1069 q 486 892 486 957 q 419 719 486 790 q 256 649 351 649 q 92 719 160 649 q 25 891 25 790 q 92 1063 25 992 q 256 1135 160 1135 m 301 679 q 363 713 335 688 q 407 771 390 739 q 431 836 424 803 q 426 956 442 896 q 369 1060 410 1017 q 297 1105 340 1090 q 213 1110 253 1119 q 108 1017 153 1093 q 82 854 64 940 q 172 715 100 767 q 301 679 243 664 m 331 803 q 369 772 347 779 l 382 767 l 274 767 l 290 772 q 296 779 293 775 q 293 799 299 786 l 293 800 l 253 871 l 242 867 l 214 867 l 214 796 q 219 782 215 789 q 232 772 225 775 l 251 767 l 144 767 l 163 772 q 181 797 178 778 l 181 933 l 181 1001 q 176 1010 181 1007 l 156 1021 l 181 1032 l 183 1032 l 214 1046 l 214 1042 l 214 1033 q 226 1033 218 1033 q 236 1033 231 1033 l 238 1033 q 312 1013 285 1033 q 340 954 339 992 q 333 929 340 944 q 317 906 326 914 q 296 890 308 897 l 283 885 l 331 803 m 269 903 q 304 958 306 931 q 285 997 304 979 q 214 1022 254 1025 l 214 972 l 214 969 l 214 881 l 221 883 l 258 894 l 260 896 q 265 900 264 899 l 269 903 z "},"°":{"ha":232,"x_min":-8,"x_max":240,"o":"m 28 1098 q 46 1117 28 1098 q 115 1136 64 1136 q 203 1098 167 1136 q 240 1005 240 1060 q 203 912 240 950 q 115 874 167 874 q 28 912 64 874 q -8 1005 -8 950 q 28 1098 -8 1060 m 96 1114 q 54 1069 69 1107 q 49 986 39 1031 q 100 903 60 928 q 138 896 119 890 q 175 939 164 901 q 178 1021 186 976 q 128 1108 165 1085 q 104 1115 117 1115 q 96 1114 100 1115 z "},"²":{"ha":207,"x_min":1,"x_max":196,"o":"m 131 901 l 196 889 l 167 883 q 144 853 142 878 l 146 846 l 135 846 l 15 846 l 18 872 q 44 919 22 882 q 115 1056 113 1040 q 105 1100 118 1079 q 75 1122 92 1121 q 38 1079 58 1125 l 33 1071 l 1 1107 l 4 1110 q 60 1140 26 1136 q 122 1122 94 1143 q 156 1069 153 1101 q 126 986 157 1051 q 64 874 94 921 l 103 875 q 106 882 104 876 q 111 890 110 888 q 124 901 117 900 q 131 901 128 903 z "},"³":{"ha":199,"x_min":15,"x_max":183,"o":"m 153 1025 q 182 946 182 993 q 156 872 182 903 q 93 840 131 840 q 24 882 50 840 l 15 894 l 57 885 l 58 882 q 79 860 67 864 q 97 863 88 857 q 132 932 122 879 q 125 1006 139 972 q 108 1025 115 1025 l 61 1025 l 38 1049 l 68 1049 l 114 1050 l 118 1050 q 132 1076 131 1054 q 111 1114 133 1104 q 89 1114 99 1119 q 69 1083 75 1107 l 68 1075 l 26 1103 l 29 1108 q 121 1135 68 1157 q 161 1074 161 1118 q 154 1029 163 1053 q 153 1025 154 1026 z "},"¹":{"ha":156,"x_min":-6,"x_max":153,"o":"m 97 881 q 128 857 101 864 l 153 846 l 4 846 l 26 857 q 56 881 51 861 l 57 882 l 57 1092 q 36 1099 51 1096 l -6 1101 l 60 1128 l 97 1143 l 97 1135 l 97 1050 l 97 1044 l 97 881 z "},"º":{"ha":246,"x_min":4,"x_max":242,"o":"m 122 1133 q 181 1115 154 1133 q 224 1063 208 1096 q 240 990 240 1029 q 206 888 240 931 q 122 846 171 846 q 39 888 74 846 q 4 990 4 931 q 39 1092 4 1050 q 122 1133 74 1133 m 146 858 q 187 911 174 867 q 190 1010 200 956 q 154 1098 181 1065 q 100 1122 128 1131 q 56 1067 72 1113 q 49 967 40 1021 q 88 881 58 914 q 146 858 118 849 z "},"»":{"ha":444,"x_min":25,"x_max":417,"o":"m 417 451 q 378 285 361 333 l 211 201 q 217 240 211 221 q 229 274 224 260 q 250 309 235 289 q 272 339 265 329 q 301 371 279 349 q 328 398 322 393 q 359 426 333 403 q 386 451 385 450 q 358 477 383 454 q 328 506 333 500 q 301 533 322 513 q 272 565 279 554 q 250 595 265 575 q 229 630 235 615 q 217 664 224 644 q 211 703 211 683 l 378 619 q 379 553 369 594 q 403 481 389 511 l 417 451 m 232 451 q 193 285 176 335 l 26 201 q 31 235 28 218 q 42 267 35 251 q 57 297 50 283 q 78 326 64 310 q 100 353 92 343 q 126 380 108 363 q 151 404 143 397 q 178 429 158 411 q 203 451 197 447 q 175 477 200 454 q 144 506 150 500 q 116 533 138 513 q 88 565 94 554 q 65 595 81 575 q 44 630 50 615 q 33 664 39 644 q 26 703 28 683 l 193 619 q 190 581 189 603 q 199 536 192 558 q 213 495 206 514 q 226 464 221 476 l 232 451 z "},"¿":{"ha":732,"x_min":8,"x_max":678,"o":"m 675 233 q 675 207 678 233 q 671 172 672 181 q 607 36 657 103 q 456 -76 547 -42 q 275 -83 365 -110 q 119 13 186 -57 q 31 172 53 82 q 36 340 8 256 q 135 467 64 424 q 236 521 164 485 q 390 619 369 589 q 385 658 407 642 q 391 665 386 661 q 413 674 396 668 q 454 668 431 679 q 474 657 468 664 q 478 632 481 649 q 401 539 469 594 q 315 479 382 524 q 212 398 249 435 q 156 314 175 361 q 139 217 139 268 q 160 114 139 165 q 213 22 182 63 q 292 -45 244 -19 q 389 -71 339 -71 q 451 -50 422 -71 q 496 5 479 -29 q 526 81 513 39 q 543 166 539 124 q 549 247 547 208 q 544 311 550 286 q 675 233 675 233 m 438 717 q 365 715 410 672 l 281 857 q 285 860 282 858 q 294 869 288 863 q 307 884 301 876 q 318 904 313 892 q 326 930 324 917 q 327 961 329 943 q 318 999 325 979 l 390 917 q 395 913 393 915 q 400 897 397 910 q 394 865 403 885 q 383 838 390 856 q 371 809 375 821 q 363 784 367 797 q 358 760 358 771 q 364 743 358 750 q 390 727 371 733 q 422 718 408 721 l 438 717 z "},"À":{"ha":857,"x_min":-15,"x_max":883,"o":"m 825 50 q 833 38 829 43 q 842 28 838 32 q 850 19 846 24 q 858 13 854 15 q 866 8 863 10 q 873 4 869 6 q 878 2 876 3 q 882 1 881 1 q 883 0 883 0 l 735 0 l 735 0 l 660 0 q 715 46 693 10 l 554 428 l 324 263 l 190 263 l 121 85 l 114 64 q 107 49 111 58 q 131 19 117 32 q 156 4 146 7 l 164 0 l 94 0 l -15 0 q -2 5 -10 1 q 24 26 6 8 q 50 67 42 43 l 65 101 l 89 160 l 188 399 l 354 825 l 358 838 q 236 860 261 869 l 347 917 l 376 932 l 381 935 q 410 908 390 921 l 447 893 q 471 889 464 889 l 825 50 m 203 294 l 540 460 l 464 642 l 436 706 l 401 789 l 385 749 l 288 511 l 203 294 m 507 997 q 369 974 435 1032 l 290 1043 q 346 1053 318 1053 q 401 1046 374 1054 q 454 1026 429 1038 q 507 997 479 1014 z "},"Â":{"ha":846,"x_min":-26,"x_max":872,"o":"m 599 -4 l 599 -3 l 600 -3 l 599 -4 m 713 -4 l 713 -3 l 714 -3 l 713 -4 m 814 50 q 829 30 821 39 q 844 15 838 21 q 858 6 851 10 q 868 1 864 3 q 872 0 872 0 l 724 0 l 724 0 l 649 0 q 704 46 682 10 l 543 428 l 313 263 l 179 263 l 110 85 l 103 64 q 96 49 100 58 q 120 19 106 32 q 144 4 135 7 l 153 0 l 83 0 l -26 0 q -13 5 -21 1 q 13 26 -6 8 q 39 67 31 43 l 54 101 l 78 160 l 176 399 l 343 825 l 347 838 q 225 860 250 869 l 336 917 l 365 932 l 369 935 q 399 908 379 921 l 436 893 q 460 889 453 889 l 814 50 m 192 294 l 529 460 l 453 642 l 425 706 l 390 789 l 374 749 l 276 511 l 192 294 m 388 1054 q 374 1039 386 1053 q 358 1022 361 1025 q 342 1006 354 1018 q 325 990 331 994 q 308 978 319 986 q 288 966 296 969 q 269 959 279 963 q 247 956 258 956 l 294 1050 q 332 1050 308 1044 q 372 1063 356 1056 l 388 1071 q 482 1050 454 1040 l 529 956 q 507 959 518 956 q 488 966 496 963 q 469 978 481 969 q 451 990 457 986 q 434 1006 446 993 q 419 1021 422 1018 q 402 1038 415 1024 q 388 1054 389 1053 z "},"Ã":{"ha":846,"x_min":-28,"x_max":872,"o":"m 814 50 q 824 35 818 42 q 835 23 831 28 q 846 14 840 18 q 856 7 851 10 q 865 3 861 4 q 870 1 868 1 q 872 0 872 0 l 724 0 l 724 0 l 649 0 q 704 46 682 10 l 543 428 l 313 263 l 179 263 l 110 85 l 103 64 q 96 49 100 58 q 111 30 103 39 q 126 15 119 21 q 140 6 133 10 q 150 1 146 3 l 153 0 l 83 0 l -26 0 q -13 5 -21 1 q 13 26 -6 8 q 39 67 31 43 l 54 101 l 78 160 l 176 399 l 343 825 l 347 838 q 225 860 250 869 l 336 917 l 365 932 l 369 935 q 399 908 379 921 l 436 893 q 460 889 453 889 l 814 50 m 192 294 l 529 460 l 453 642 l 425 706 l 390 789 l 374 749 l 276 511 l 192 294 m 272 990 q 256 974 261 982 q 250 964 250 967 l 249 960 l 249 992 l 385 1074 q 388 1069 386 1072 q 397 1060 390 1067 q 412 1047 404 1053 q 432 1035 419 1042 q 458 1027 444 1029 q 490 1026 471 1025 q 526 1035 508 1028 l 444 963 q 441 958 444 961 q 425 953 438 956 q 393 960 413 950 q 366 970 383 963 q 338 983 349 978 q 313 992 326 988 q 288 995 299 996 q 272 990 278 994 z "},"Ä":{"ha":846,"x_min":-28,"x_max":872,"o":"m 814 50 q 829 30 821 39 q 844 15 838 21 q 858 6 851 10 q 868 1 864 3 q 872 0 872 0 l 724 0 l 724 0 l 649 0 q 704 46 682 10 l 543 428 l 313 263 l 179 263 l 110 85 l 103 64 q 96 49 100 58 q 120 19 106 32 q 144 4 135 7 l 153 0 l 83 0 l -26 0 q -13 5 -21 1 q 13 26 -6 8 q 39 67 31 43 l 54 101 l 78 160 l 176 399 l 343 825 l 347 838 q 225 860 250 869 l 336 917 l 365 932 l 369 935 q 399 908 379 921 l 436 893 q 460 889 453 889 l 814 50 m 192 294 l 529 460 l 453 642 l 425 706 l 390 789 l 374 749 l 276 511 l 192 294 m 374 1013 l 328 956 l 282 1013 l 328 1071 l 374 1013 m 494 1013 l 449 956 l 403 1013 l 449 1071 l 494 1013 z "},"Å":{"ha":857,"x_min":-15,"x_max":883,"o":"m 825 50 q 840 30 832 39 q 856 15 849 21 q 869 6 863 10 q 879 1 875 3 q 883 0 883 0 l 735 0 l 735 0 l 660 0 q 715 46 693 10 l 554 428 l 324 263 l 190 263 l 121 85 l 114 64 q 107 49 111 58 q 131 19 117 32 q 156 4 146 7 l 164 0 l 94 0 l -15 0 q -2 5 -10 1 q 24 26 6 8 q 50 67 42 43 l 65 101 l 89 160 l 188 399 l 354 825 l 358 838 q 236 860 261 869 l 347 917 l 358 924 q 324 999 324 950 q 333 1043 324 1022 q 361 1076 343 1064 q 399 1088 379 1088 q 438 1076 419 1088 q 465 1043 456 1064 q 475 999 475 1022 q 467 957 475 976 q 443 925 458 938 q 408 910 428 913 q 409 909 408 910 q 410 908 410 908 l 447 893 q 471 889 464 889 l 825 50 m 392 1054 q 377 1032 383 1051 q 375 989 371 1013 q 399 946 381 957 q 407 943 404 942 q 420 965 415 946 q 421 1007 425 983 q 397 1053 414 1043 q 393 1054 396 1054 q 392 1054 393 1054 m 203 294 l 540 460 l 464 642 l 436 706 l 401 789 l 385 749 l 288 511 l 203 294 z "},"Æ":{"ha":1081,"x_min":-22,"x_max":1082,"o":"m 632 38 l 639 36 l 1036 60 l 1000 0 l 449 0 q 455 3 451 1 q 469 11 458 4 q 489 27 481 18 q 506 53 497 36 q 517 92 514 71 l 517 319 l 310 172 l 218 172 l 169 90 q 169 53 165 69 q 179 26 172 36 q 193 10 186 17 q 206 1 200 3 l 211 -1 l -21 -1 q -3 6 -14 1 q 34 34 8 11 q 74 90 60 57 l 504 833 q 472 856 493 846 l 444 865 l 529 901 l 572 919 l 613 936 l 613 936 l 613 900 l 622 894 l 639 890 l 983 890 l 983 889 l 994 889 q 994 878 994 885 q 997 852 993 871 q 1007 819 1000 833 q 1033 789 1014 804 q 1081 767 1053 774 l 963 744 q 960 744 963 744 q 953 743 958 743 q 944 745 949 743 q 932 754 939 747 q 918 772 925 761 q 903 805 914 782 q 885 839 892 828 l 650 853 l 622 854 l 613 847 l 613 808 l 613 638 l 613 410 l 621 414 l 638 421 l 643 424 l 656 431 l 831 515 l 875 538 l 889 544 l 907 553 l 931 564 l 986 592 q 1000 601 993 593 q 999 578 1000 592 q 997 572 999 576 q 996 567 996 568 l 964 544 l 935 524 l 917 511 l 886 489 l 725 374 l 668 374 l 661 374 l 626 374 l 613 374 l 613 92 q 632 38 617 61 m 257 238 l 517 364 l 517 563 l 517 667 l 257 238 z "},"Ç":{"ha":710,"x_min":19,"x_max":710,"o":"m 708 167 q 594 44 663 92 q 447 -14 526 -3 q 428 -58 432 -33 q 429 -94 425 -82 l 435 -108 q 406 -140 417 -128 q 374 -164 394 -151 q 332 -181 353 -176 l 271 -144 q 329 -153 308 -160 q 341 -142 336 -150 q 348 -127 346 -135 q 353 -104 350 -119 q 358 -79 357 -89 q 362 -69 360 -74 q 366 -60 364 -64 q 371 -54 368 -57 q 376 -50 374 -51 q 379 -47 378 -49 q 382 -46 381 -46 l 383 -44 l 432 -15 q 404 -17 417 -17 q 256 20 326 -17 q 133 119 185 57 q 51 269 82 182 q 21 450 21 356 q 72 685 21 578 q 212 856 124 793 q 404 918 300 918 q 553 881 483 918 q 676 779 624 844 l 567 704 q 458 849 521 801 q 332 878 394 897 q 247 817 288 864 q 177 703 206 771 q 138 551 149 635 q 142 378 126 467 q 220 174 161 264 q 350 44 279 83 q 481 22 421 4 q 593 139 550 44 l 708 167 z "},"È":{"ha":649,"x_min":11,"x_max":649,"o":"m 199 38 l 206 36 l 603 58 l 567 0 l 15 0 q 22 1 18 0 q 35 10 25 3 q 55 27 46 18 q 72 53 64 36 q 83 90 81 69 l 83 92 l 83 563 l 83 799 q 39 856 83 835 l 11 864 l 83 894 l 179 936 l 179 936 l 179 897 l 206 889 l 550 889 l 561 888 q 560 878 561 885 q 563 852 560 871 q 573 818 565 833 q 600 788 581 803 q 647 767 619 772 l 529 744 q 526 744 528 744 q 520 742 525 743 q 510 744 515 742 q 499 753 506 746 q 485 772 492 761 q 469 803 481 781 q 451 838 458 826 l 188 853 l 179 846 l 179 808 l 179 638 l 179 408 l 188 413 l 204 421 l 208 424 l 222 431 l 397 515 l 442 538 l 456 544 l 472 553 l 497 564 l 551 590 q 567 601 560 593 q 565 578 565 592 q 563 572 564 576 q 563 567 563 567 l 531 543 l 501 522 l 483 510 l 453 488 l 292 374 l 235 374 l 228 374 l 193 372 l 179 372 l 179 92 l 179 90 q 199 38 183 60 m 482 997 q 344 974 410 1032 l 265 1043 q 321 1053 293 1053 q 376 1046 349 1054 q 428 1026 404 1038 q 482 997 453 1014 z "},"É":{"ha":649,"x_min":11,"x_max":649,"o":"m 199 38 l 206 36 l 603 58 l 567 0 l 15 0 q 21 1 17 0 q 35 10 25 3 q 55 27 46 18 q 72 53 64 36 q 83 90 81 69 l 83 92 l 83 563 l 83 799 q 39 856 83 835 l 11 864 l 83 894 l 179 936 l 179 936 l 179 897 l 206 889 l 550 889 l 561 888 q 560 878 561 885 q 563 852 560 871 q 573 818 565 833 q 600 788 581 803 q 647 767 619 772 l 529 744 q 526 744 528 744 q 520 742 525 743 q 510 744 515 742 q 499 753 506 746 q 485 772 492 761 q 469 803 481 781 q 451 838 458 826 l 188 853 l 179 846 l 179 808 l 179 638 l 179 408 l 188 413 l 204 421 l 208 424 l 222 431 l 397 515 l 442 538 l 456 544 l 472 553 l 497 564 l 551 590 q 567 601 560 593 q 565 578 565 592 q 563 572 564 576 q 563 567 563 567 l 531 543 l 501 522 l 483 510 l 453 488 l 292 374 l 235 374 l 228 374 l 193 372 l 179 372 l 179 92 l 179 90 q 199 38 183 60 m 464 1029 q 410 1001 435 1013 q 358 981 386 989 q 303 973 331 972 q 247 983 275 974 l 326 1053 q 464 1029 392 994 z "},"Ê":{"ha":649,"x_min":11,"x_max":649,"o":"m 199 38 l 206 36 l 603 58 l 567 0 l 15 0 q 21 1 17 0 q 35 10 25 3 q 55 27 46 18 q 72 53 64 36 q 83 90 81 71 l 83 92 l 83 563 l 83 799 q 39 856 83 835 l 11 864 l 83 894 l 179 936 l 179 936 l 179 897 l 206 889 l 550 889 l 561 888 q 560 883 561 886 q 560 868 560 879 q 563 847 561 857 q 572 823 565 836 q 587 799 578 810 q 611 780 596 789 q 647 767 626 771 l 529 744 q 526 744 528 744 q 520 742 525 743 q 510 744 515 742 q 499 753 506 746 q 485 772 492 761 q 469 803 481 781 q 451 838 458 826 l 188 853 l 179 846 l 179 808 l 179 638 l 179 408 l 188 413 l 204 421 l 208 424 l 222 431 l 397 515 l 442 538 l 456 544 l 472 553 l 497 564 l 551 590 q 567 601 560 593 q 565 578 565 592 q 563 572 564 576 q 563 567 563 567 l 531 543 l 501 522 l 483 510 l 453 488 l 292 374 l 235 374 l 228 374 l 193 372 l 179 372 l 179 92 l 179 90 q 199 38 183 60 m 386 1054 q 372 1039 385 1053 q 356 1022 358 1025 q 340 1006 353 1018 q 322 990 328 994 q 306 978 317 986 q 286 966 294 969 q 267 959 278 963 q 244 956 256 956 l 292 1050 q 314 1047 301 1046 q 339 1052 326 1049 q 362 1060 351 1056 q 379 1068 372 1064 l 386 1071 q 481 1050 453 1040 l 526 956 q 508 958 517 956 q 490 965 499 960 q 473 973 481 969 q 456 984 465 976 q 442 997 447 992 q 426 1011 436 1001 q 413 1025 417 1021 q 399 1040 408 1029 q 386 1054 389 1051 z "},"Ë":{"ha":649,"x_min":11,"x_max":649,"o":"m 199 38 l 206 36 l 603 58 l 567 0 l 15 0 q 21 1 17 0 q 35 10 25 3 q 55 27 46 18 q 72 53 64 36 q 83 90 81 69 l 83 92 l 83 563 l 83 799 q 39 856 83 835 l 11 864 l 83 894 l 179 936 l 179 936 l 179 897 l 206 889 l 550 889 l 561 888 q 560 878 561 885 q 563 852 560 871 q 573 818 565 833 q 600 788 581 803 q 647 767 619 772 l 529 744 q 526 743 528 743 q 523 742 525 743 q 518 742 521 742 q 513 744 515 743 q 506 747 510 744 q 499 752 503 749 q 492 760 496 756 q 485 772 489 765 q 477 788 482 779 q 469 805 472 797 q 460 822 465 813 q 451 838 456 831 l 188 853 l 179 846 l 179 808 l 179 638 l 179 408 l 188 414 l 204 421 l 208 424 l 222 431 l 397 515 l 442 538 l 456 544 l 472 553 l 497 564 l 551 590 q 567 601 560 593 q 565 578 565 592 q 563 572 564 576 q 563 567 563 567 l 531 543 l 501 522 l 483 510 l 453 488 l 292 374 l 235 374 l 228 374 l 193 372 l 179 372 l 179 92 l 179 90 q 199 38 183 60 m 315 1013 l 269 956 l 224 1013 l 269 1071 l 315 1013 m 435 1013 l 389 956 l 344 1013 l 389 1071 l 435 1013 z "},"Ì":{"ha":261,"x_min":13,"x_max":247,"o":"m 239 1021 q 100 997 167 1056 l 22 1067 q 76 1077 49 1076 q 132 1069 104 1078 q 185 1049 160 1061 q 239 1021 210 1038 m 178 89 q 201 35 183 57 q 231 6 218 13 q 246 0 243 0 l 14 0 q 20 1 17 0 q 35 10 24 3 q 54 27 46 18 q 71 53 63 36 q 82 90 79 71 l 82 92 l 82 563 l 82 846 q 60 901 76 878 q 28 929 43 924 l 14 936 l 246 936 q 240 933 243 935 q 226 925 236 932 q 206 909 215 918 q 189 883 197 900 q 178 844 181 865 l 178 374 l 178 89 z "},"Í":{"ha":261,"x_min":14,"x_max":247,"o":"m 239 1054 q 185 1024 210 1036 q 132 1004 160 1013 q 76 997 104 996 q 22 1008 49 997 l 100 1076 q 239 1054 167 1018 m 178 89 q 189 53 181 69 q 207 26 197 36 q 226 10 217 17 q 240 1 235 4 l 246 0 l 14 0 q 20 1 17 0 q 35 10 24 3 q 54 27 46 18 q 71 53 63 36 q 82 90 79 71 l 82 92 l 82 563 l 82 846 q 60 901 76 878 q 28 929 43 924 l 14 936 l 246 936 q 240 933 243 935 q 226 925 236 932 q 206 909 215 918 q 189 883 197 900 q 178 844 181 865 l 178 374 l 178 89 z "},"Î":{"ha":260,"x_min":-11,"x_max":271,"o":"m 129 1078 q 115 1063 128 1076 q 99 1045 103 1049 q 84 1030 96 1042 q 67 1014 72 1018 q 49 1001 61 1010 q 29 990 38 993 q 10 983 21 986 q -11 979 0 979 l 35 1074 q 58 1072 46 1071 q 83 1076 69 1072 q 106 1083 96 1079 q 124 1092 117 1088 l 129 1094 q 224 1074 196 1064 l 271 979 q 249 983 260 979 q 230 990 238 986 q 210 1001 222 993 q 193 1014 199 1010 q 176 1030 188 1018 q 160 1045 164 1042 q 144 1063 157 1049 q 129 1078 131 1076 m 178 844 l 178 374 l 178 89 q 200 35 183 57 q 231 6 217 13 l 246 0 l 14 0 q 20 1 17 0 q 34 10 24 3 q 53 27 44 18 q 71 53 63 36 q 82 90 79 71 l 82 92 l 82 563 l 82 846 q 60 901 76 878 q 28 929 43 924 l 14 936 l 246 936 q 240 933 243 935 q 225 925 236 932 q 206 909 214 918 q 189 883 197 900 q 178 844 181 865 z "},"Ï":{"ha":261,"x_min":14,"x_max":247,"o":"m 115 1038 l 69 979 l 24 1038 l 69 1094 l 115 1038 m 236 1038 l 190 979 l 144 1038 l 190 1094 l 236 1038 m 178 89 q 189 53 181 69 q 206 26 197 36 q 225 10 215 17 q 240 2 235 4 q 246 0 246 0 l 14 0 q 20 1 17 0 q 35 10 24 3 q 54 27 46 18 q 71 53 63 36 q 82 90 79 71 l 82 92 l 82 563 l 82 846 q 60 901 76 878 q 28 929 43 924 l 14 936 l 246 936 q 240 933 243 935 q 226 925 236 932 q 206 909 215 918 q 189 883 197 900 q 178 844 181 865 l 178 374 l 178 89 z "},"Ñ":{"ha":710,"x_min":11,"x_max":661,"o":"m 653 13 l 660 0 l 653 0 l 600 0 l 600 0 l 531 0 q 532 0 532 0 l 138 699 l 138 563 l 136 563 l 136 90 q 157 36 142 60 q 178 15 167 24 q 197 3 190 6 l 206 0 l 83 0 l 83 0 l 15 0 q 21 1 17 0 q 35 10 25 3 q 55 27 46 18 q 72 53 64 36 q 83 90 81 71 l 83 92 l 83 563 l 83 800 l 83 799 q 56 846 83 828 q 38 856 47 851 l 11 864 l 83 894 l 83 896 l 136 918 l 138 918 l 600 106 l 600 563 l 599 563 l 599 800 l 599 799 q 571 846 599 828 q 553 856 563 851 l 528 864 l 599 894 l 600 896 l 653 918 l 653 918 l 653 563 l 653 13 m 260 1014 q 244 998 250 1006 q 239 988 239 990 l 238 983 l 238 1015 l 374 1097 q 377 1093 375 1096 q 386 1083 379 1090 q 401 1071 393 1076 q 421 1060 408 1065 q 447 1051 433 1054 q 478 1050 460 1049 q 515 1058 497 1051 l 433 988 q 429 983 432 985 q 414 977 426 981 q 382 983 401 974 q 355 994 372 988 q 326 1006 338 1001 q 301 1015 314 1011 q 277 1019 288 1019 q 260 1014 267 1019 z "},"Ò":{"ha":803,"x_min":19,"x_max":782,"o":"m 510 1021 q 372 997 438 1056 l 293 1067 q 348 1077 319 1076 q 404 1069 376 1078 q 456 1049 432 1061 q 510 1021 481 1038 m 210 856 q 253 887 210 856 q 401 918 297 918 q 592 856 504 918 q 731 688 679 794 q 782 455 782 581 q 731 222 782 329 q 592 53 679 115 q 401 -8 504 -8 q 210 53 297 -8 q 72 222 122 115 q 21 455 21 329 q 72 688 21 581 q 210 856 122 794 m 478 31 q 561 89 522 43 q 626 201 600 135 q 661 351 651 268 q 656 521 671 433 q 604 681 640 607 q 522 803 568 756 q 425 872 476 850 q 331 879 374 893 q 245 819 286 865 q 176 705 204 772 q 136 553 147 638 q 140 382 125 469 q 218 181 160 269 q 347 51 276 92 q 478 31 418 11 z "},"Ó":{"ha":803,"x_min":19,"x_max":782,"o":"m 510 1054 q 456 1024 481 1036 q 404 1004 432 1013 q 348 997 376 996 q 293 1008 319 997 l 372 1076 q 510 1054 438 1018 m 210 856 q 253 887 210 856 q 401 918 297 918 q 592 856 504 918 q 731 688 679 794 q 782 455 782 581 q 731 222 782 329 q 592 53 679 115 q 401 -8 504 -8 q 210 53 297 -8 q 72 222 122 115 q 21 455 21 329 q 72 688 21 581 q 210 856 122 794 m 478 31 q 561 89 522 43 q 626 201 600 135 q 661 351 651 268 q 656 521 671 433 q 604 681 640 607 q 522 803 568 756 q 425 872 476 850 q 331 879 374 893 q 245 819 286 865 q 176 705 204 772 q 136 553 147 638 q 140 382 125 469 q 218 181 160 269 q 347 51 276 92 q 478 31 418 11 z "},"Ô":{"ha":803,"x_min":19,"x_max":782,"o":"m 401 1078 q 387 1063 400 1076 q 371 1045 374 1049 q 356 1030 368 1042 q 338 1014 343 1018 q 321 1001 332 1010 q 301 990 310 993 q 282 983 293 986 q 260 979 271 979 l 307 1074 q 329 1072 317 1071 q 354 1076 342 1072 q 377 1083 367 1079 q 394 1092 388 1088 l 401 1094 q 496 1074 468 1064 l 542 979 q 521 983 532 979 q 501 990 510 986 q 481 1001 493 993 q 465 1014 469 1010 q 447 1030 460 1018 q 432 1045 435 1042 q 416 1063 429 1049 q 401 1078 403 1076 m 210 856 q 253 887 210 856 q 401 918 297 918 q 592 856 504 918 q 731 688 679 794 q 782 455 782 581 q 731 222 782 329 q 592 53 679 115 q 401 -8 504 -8 q 210 53 297 -8 q 72 222 122 115 q 21 455 21 329 q 72 688 21 581 q 210 856 122 794 m 478 31 q 561 89 522 43 q 626 201 600 135 q 661 351 651 268 q 656 521 671 433 q 604 681 640 607 q 522 803 568 756 q 425 872 476 850 q 331 879 374 893 q 245 819 286 865 q 176 705 204 772 q 136 553 147 638 q 140 382 125 469 q 218 181 160 269 q 347 51 276 92 q 478 31 418 11 z "},"Õ":{"ha":803,"x_min":19,"x_max":782,"o":"m 285 1014 q 269 998 275 1006 q 263 988 264 990 l 263 983 l 263 1015 l 399 1097 q 401 1093 399 1096 q 410 1083 403 1090 q 424 1071 417 1076 q 444 1060 432 1065 q 471 1051 457 1054 q 503 1050 485 1049 q 540 1058 521 1051 l 458 988 q 454 983 457 985 q 438 977 451 981 q 406 983 425 974 q 380 994 397 988 q 351 1006 363 1001 q 325 1015 339 1011 q 301 1019 311 1019 q 285 1014 290 1019 m 210 856 q 253 887 210 856 q 401 918 297 918 q 592 856 504 918 q 731 688 679 794 q 782 455 782 581 q 731 222 782 329 q 592 53 679 115 q 401 -8 504 -8 q 210 53 297 -8 q 72 222 122 115 q 21 455 21 329 q 72 688 21 581 q 210 856 122 794 m 478 31 q 561 89 522 43 q 626 201 600 135 q 661 351 651 268 q 656 521 671 433 q 604 681 640 607 q 522 803 568 756 q 425 872 476 850 q 331 879 374 893 q 245 819 286 865 q 176 705 204 772 q 136 553 147 638 q 140 382 125 469 q 218 181 160 269 q 347 51 276 92 q 478 31 418 11 z "},"Ö":{"ha":803,"x_min":19,"x_max":782,"o":"m 386 1038 l 340 979 l 296 1038 l 340 1094 l 386 1038 m 507 1038 l 461 979 l 415 1038 l 461 1094 l 507 1038 m 210 856 q 253 887 210 856 q 401 918 297 918 q 592 856 504 918 q 731 688 679 794 q 782 455 782 581 q 731 222 782 329 q 592 53 679 115 q 401 -8 504 -8 q 210 53 297 -8 q 72 222 122 115 q 21 455 21 329 q 72 688 21 581 q 210 856 122 794 m 478 31 q 561 89 522 43 q 626 201 600 135 q 661 351 651 268 q 656 521 671 433 q 604 681 640 607 q 522 803 568 756 q 425 872 476 850 q 331 879 374 893 q 245 819 286 865 q 176 705 204 772 q 136 553 147 638 q 140 382 125 469 q 218 181 160 269 q 347 51 276 92 q 478 31 418 11 z "},"×":{"ha":593,"x_min":22,"x_max":571,"o":"m 442 525 q 507 491 474 499 q 552 486 540 483 q 571 492 564 489 l 407 328 q 412 346 410 335 q 407 391 414 357 q 374 457 400 425 l 296 535 l 219 457 q 185 392 193 425 q 182 344 176 360 l 186 328 l 22 492 q 40 486 29 489 q 85 491 51 483 q 151 525 119 499 l 229 601 l 151 679 q 87 713 119 706 q 39 717 54 721 l 22 713 l 186 876 q 181 858 183 869 q 185 813 178 847 q 219 747 193 779 l 296 669 l 374 747 q 408 812 400 779 q 411 860 415 844 l 407 876 l 571 713 q 553 717 564 715 q 508 713 542 719 q 442 679 474 706 l 364 601 l 442 525 z "},"Ø":{"ha":950,"x_min":-7,"x_max":956,"o":"m 843 810 l 779 739 q 857 457 857 614 q 806 223 857 331 q 667 53 754 115 q 475 -8 579 -8 q 214 117 325 -8 l 169 67 q 199 10 128 25 q 261 4 225 4 l -6 4 l 163 189 q 93 457 93 310 q 144 691 93 583 q 283 860 194 799 q 475 922 371 922 q 725 808 618 922 l 736 819 q 760 849 751 838 q 773 870 769 861 q 778 884 776 879 q 775 894 781 889 q 767 900 769 899 q 754 906 765 901 q 740 911 743 910 l 781 911 l 781 911 l 956 911 l 843 810 m 225 385 q 247 283 238 313 l 649 722 q 536 860 604 817 q 404 883 468 903 q 320 823 360 869 q 255 708 281 776 q 219 556 229 640 q 225 385 210 472 m 707 524 q 683 632 693 601 l 283 194 q 342 110 308 147 q 410 53 375 74 q 483 26 446 33 q 551 31 519 19 q 690 203 643 58 q 707 524 736 349 z "},"Ù":{"ha":797,"x_min":11,"x_max":785,"o":"m 506 1021 q 368 997 433 1056 l 289 1067 q 344 1077 317 1076 q 400 1069 372 1078 q 452 1049 428 1061 q 506 1021 476 1038 m 717 92 q 723 63 718 76 q 734 41 728 50 q 747 24 740 32 q 761 13 754 17 q 773 5 768 8 q 781 1 778 1 l 785 0 l 553 0 q 558 2 554 0 q 573 11 563 4 q 592 27 583 18 q 610 53 601 36 q 621 92 618 71 l 621 185 q 579 142 603 167 q 504 76 556 118 q 413 17 453 35 q 321 -4 376 0 q 218 0 265 -8 q 186 8 200 3 q 179 10 183 8 l 178 10 l 178 11 q 99 76 124 32 q 89 100 93 86 q 86 111 88 104 q 83 151 83 128 l 83 564 l 83 801 q 39 857 83 838 l 11 867 l 11 867 l 83 897 l 179 938 l 179 938 l 179 810 l 179 638 l 179 260 l 179 161 q 202 127 179 144 q 266 99 225 110 q 357 90 307 89 q 469 117 407 92 q 588 192 531 142 l 611 213 q 621 232 618 219 l 621 564 l 621 801 q 576 857 621 838 l 549 867 l 549 867 l 621 897 l 715 938 l 717 938 l 717 810 l 715 810 l 715 638 l 717 638 l 717 92 z "},"Û":{"ha":797,"x_min":11,"x_max":785,"o":"m 397 1078 q 383 1063 396 1076 q 367 1045 371 1049 q 352 1030 364 1042 q 335 1014 340 1018 q 317 1001 329 1010 q 297 990 306 993 q 278 983 289 986 q 257 979 268 979 l 303 1074 q 326 1072 314 1071 q 351 1076 338 1072 q 374 1083 364 1079 q 392 1092 385 1088 l 397 1094 q 492 1074 464 1064 l 539 979 q 517 983 528 979 q 498 990 506 986 q 478 1001 490 993 q 461 1014 467 1010 q 443 1030 456 1018 q 428 1045 431 1042 q 412 1063 425 1049 q 397 1078 399 1076 m 717 92 q 723 63 718 76 q 734 41 728 50 q 747 24 740 32 q 761 13 754 17 q 773 6 768 8 q 781 1 778 3 q 785 0 785 0 l 553 0 q 558 2 554 0 q 573 11 563 4 q 592 27 583 18 q 610 53 601 36 q 621 92 618 71 l 621 185 q 579 142 603 167 q 504 76 556 118 q 413 17 453 35 q 321 -4 376 0 q 218 0 265 -8 q 186 8 200 3 q 179 10 183 8 l 178 10 l 178 11 q 99 76 124 32 q 89 100 93 86 q 86 111 88 104 q 83 151 83 128 l 83 564 l 83 801 q 39 857 83 838 l 11 867 l 11 867 l 83 897 l 179 938 l 179 938 l 179 810 l 179 638 l 179 260 l 179 161 q 202 127 179 144 q 266 99 225 110 q 357 90 307 89 q 469 117 407 92 q 588 192 531 142 l 611 213 q 621 232 618 219 l 621 564 l 621 801 q 576 857 621 838 l 549 867 l 549 867 l 621 897 l 715 938 l 717 938 l 717 810 l 715 810 l 715 638 l 717 638 l 717 92 z "},"Ü":{"ha":797,"x_min":11,"x_max":785,"o":"m 383 1038 l 338 979 l 292 1038 l 338 1094 l 383 1038 m 504 1038 l 458 979 l 413 1038 l 458 1094 l 504 1038 m 717 92 q 723 63 718 76 q 734 41 728 50 q 747 24 740 32 q 761 13 754 17 q 773 6 768 8 q 781 1 778 3 q 785 0 785 0 l 553 0 q 558 2 554 0 q 573 11 563 4 q 592 27 583 18 q 610 53 601 36 q 621 92 618 71 l 621 185 q 579 142 603 167 q 504 76 556 118 q 413 17 453 35 q 321 -4 376 0 q 218 0 265 -8 q 186 8 200 3 q 179 10 183 8 l 178 10 q 99 76 124 32 q 89 100 93 86 q 86 111 88 104 q 83 151 83 128 l 83 564 l 83 801 q 39 857 83 838 l 11 867 l 83 897 l 179 938 l 179 938 l 179 810 l 179 638 l 179 260 l 179 161 q 202 127 179 144 q 266 99 225 110 q 357 90 307 89 q 469 117 407 92 q 588 192 531 142 l 611 213 q 621 232 618 219 l 621 564 l 621 801 q 576 857 621 838 l 549 867 l 621 897 l 715 938 l 717 938 l 715 810 l 715 638 l 717 638 l 717 92 z "},"Ý":{"ha":574,"x_min":-17,"x_max":592,"o":"m 549 872 l 321 481 l 321 92 q 332 53 324 71 q 349 27 340 36 q 367 11 358 18 q 383 3 376 4 l 389 0 l 321 0 l 225 0 l 225 0 l 157 0 q 163 3 160 1 q 177 11 167 4 q 197 27 188 18 q 214 53 206 36 q 225 92 222 71 l 225 456 l 32 860 q -15 936 6 913 q -16 937 -15 936 q -17 938 -17 938 l 129 938 q 129 921 128 928 q 146 875 129 910 q 264 638 158 847 q 301 564 289 589 l 321 599 l 465 860 q 500 938 493 908 l 592 938 q 549 872 569 911 m 419 1054 q 366 1024 390 1036 q 314 1004 342 1013 q 258 997 286 996 q 203 1008 231 997 l 282 1076 q 419 1054 347 1018 z "},"ß":{"ha":621,"x_min":50,"x_max":597,"o":"m 324 667 q 516 569 436 667 q 596 333 596 471 q 516 97 596 194 q 324 0 436 0 q 175 53 243 0 l 175 200 q 267 60 208 110 q 378 28 325 11 q 472 151 442 47 q 480 381 501 254 q 397 583 458 507 q 272 638 336 658 q 187 552 222 622 q 147 389 151 482 l 146 392 l 142 0 l 50 0 l 50 319 q 50 333 50 329 q 50 347 50 338 l 50 633 q 50 636 50 635 q 54 676 51 657 q 75 757 61 722 q 250 879 126 876 q 385 836 326 881 q 469 708 444 792 q 473 692 471 701 q 476 675 475 683 q 478 659 478 667 q 479 647 479 651 l 479 643 q 433 669 463 657 q 382 686 404 682 l 361 692 q 363 701 363 696 q 362 725 363 707 q 358 759 361 743 q 348 794 356 775 q 328 828 340 814 q 296 851 317 842 q 249 860 275 860 q 188 840 214 858 q 149 792 163 821 q 131 735 136 764 q 125 676 125 706 q 127 639 125 656 q 132 613 129 622 q 138 597 135 603 q 143 589 142 590 l 146 586 q 324 667 222 667 z "},"à":{"ha":568,"x_min":17,"x_max":567,"o":"m 506 61 q 530 24 514 39 q 555 5 546 10 q 565 0 564 0 l 461 0 q 428 13 442 0 q 411 43 414 25 l 403 90 l 397 85 q 375 64 389 76 q 324 27 361 51 q 256 -4 286 3 q 75 44 153 -25 q 33 113 49 69 q 18 195 18 157 q 28 263 18 233 l 378 429 q 400 460 394 435 l 400 510 q 399 519 400 515 q 378 597 396 564 q 271 636 344 660 q 264 632 268 635 q 245 619 260 629 q 216 597 231 610 q 181 560 201 583 q 142 508 160 536 l 54 592 q 232 663 174 658 q 397 647 354 672 q 440 622 439 624 q 494 519 494 581 l 494 114 l 506 61 m 400 142 l 400 410 l 389 410 l 135 247 l 124 229 q 123 216 124 225 q 126 183 122 207 q 138 140 129 160 q 170 102 147 121 q 228 76 193 83 q 294 74 267 71 q 344 89 322 76 q 378 114 367 101 q 400 142 390 126 m 400 789 q 263 765 328 824 l 183 835 q 239 845 211 844 q 294 838 267 846 q 347 819 322 831 q 400 789 371 807 z "},"á":{"ha":568,"x_min":17,"x_max":567,"o":"m 506 61 q 529 24 514 39 q 556 6 544 10 l 565 0 l 461 0 q 428 13 442 0 q 411 43 414 25 l 403 90 l 397 85 q 375 64 389 76 q 324 27 361 51 q 256 -4 286 3 q 75 44 153 -25 q 33 113 49 69 q 18 195 18 157 q 28 263 18 233 l 378 429 q 400 460 394 435 l 400 510 q 399 519 400 515 q 378 597 397 564 q 271 636 344 660 q 264 632 268 635 q 245 619 260 629 q 216 597 231 610 q 181 560 201 583 q 142 508 160 536 l 54 592 q 232 663 174 658 q 397 647 354 672 q 440 622 439 624 q 494 519 494 581 l 494 114 l 506 61 m 400 142 l 400 410 l 389 410 l 135 247 l 124 229 q 123 216 124 225 q 126 183 122 207 q 138 140 129 160 q 170 102 147 121 q 228 76 193 83 q 337 85 294 64 q 400 142 379 107 m 400 822 q 347 793 371 804 q 294 774 322 782 q 239 766 267 765 q 183 776 211 767 l 263 846 q 400 822 328 788 z "},"â":{"ha":568,"x_min":17,"x_max":567,"o":"m 506 61 q 519 36 511 47 q 535 19 528 25 q 550 8 543 13 q 561 2 557 4 q 565 0 565 0 l 461 0 q 428 13 442 0 q 411 43 414 25 l 403 90 l 397 85 q 375 64 389 76 q 324 27 361 51 q 256 -4 286 3 q 75 44 153 -25 q 33 113 49 69 q 18 195 18 157 q 28 263 18 233 l 378 429 q 400 460 394 435 l 400 510 q 399 519 400 515 q 378 597 396 564 q 271 636 344 660 q 251 626 264 633 q 205 585 239 618 q 142 508 171 553 l 54 592 q 232 663 174 658 q 397 647 354 672 q 440 622 439 624 q 494 519 494 581 l 494 114 l 506 61 m 400 142 l 400 410 l 389 410 l 135 247 l 124 229 q 123 216 124 225 q 126 183 122 207 q 138 140 129 160 q 170 102 147 121 q 228 76 193 83 q 337 85 294 64 q 400 142 379 107 m 292 828 q 278 811 290 825 q 262 794 265 797 q 247 778 258 790 q 228 763 235 767 q 211 750 222 758 q 192 739 200 742 q 172 733 183 736 q 151 728 161 729 l 197 822 q 235 823 211 818 q 275 836 258 828 l 292 844 q 386 822 358 813 l 433 728 q 415 731 424 729 q 396 738 406 733 q 379 746 386 742 q 363 758 372 750 q 347 769 353 765 q 332 784 342 774 q 319 799 322 794 q 305 814 315 803 q 292 828 294 825 z "},"ã":{"ha":568,"x_min":17,"x_max":567,"o":"m 506 61 q 519 36 511 47 q 535 19 528 25 q 550 8 543 13 q 561 2 557 4 q 565 0 565 0 l 461 0 q 428 13 442 0 q 411 43 414 25 l 403 90 l 397 85 q 375 64 389 76 q 324 27 361 51 q 256 -4 286 3 q 75 44 153 -25 q 33 113 49 69 q 18 195 18 157 q 28 263 18 233 l 378 429 q 400 460 394 435 l 400 510 q 399 519 400 515 q 378 597 396 564 q 271 636 344 660 q 251 626 264 633 q 205 585 239 618 q 142 508 171 553 l 54 592 q 232 663 174 658 q 397 647 354 672 q 440 622 439 624 q 494 519 494 581 l 494 114 l 506 61 m 400 142 l 400 410 l 389 410 l 135 247 l 124 229 q 123 216 124 225 q 126 183 122 207 q 138 140 129 160 q 170 102 147 121 q 228 76 193 83 q 294 74 267 71 q 344 89 322 76 q 378 114 367 101 q 400 142 390 126 m 175 785 q 160 769 165 776 q 154 758 154 761 l 153 754 l 153 786 l 289 868 q 292 864 290 867 q 301 854 294 861 q 315 842 307 847 q 336 830 324 836 q 362 822 349 824 q 393 821 375 819 q 431 829 411 822 l 349 757 q 344 753 347 756 q 329 748 342 751 q 296 754 317 744 q 270 765 288 758 q 241 777 253 772 q 215 786 229 782 q 192 790 201 790 q 175 785 182 789 z "},"ä":{"ha":568,"x_min":17,"x_max":567,"o":"m 506 61 q 519 36 511 47 q 535 19 528 25 q 550 8 543 13 q 561 2 557 4 q 565 0 565 0 l 461 0 q 428 13 442 0 q 411 43 414 25 l 403 90 l 397 85 q 375 64 389 76 q 324 27 361 51 q 256 -4 286 3 q 75 44 153 -25 q 33 113 49 69 q 18 195 18 157 q 28 263 18 233 l 378 429 q 400 460 394 435 l 400 510 q 399 519 400 515 q 378 597 396 564 q 271 636 344 660 q 264 632 268 635 q 245 619 260 629 q 216 597 231 610 q 181 560 201 583 q 142 508 160 536 l 54 592 q 232 663 174 658 q 397 647 354 672 q 440 622 439 624 q 494 519 494 581 l 494 114 l 506 61 m 400 142 l 400 410 l 389 410 l 135 247 l 124 229 q 123 216 124 225 q 126 183 122 207 q 138 140 129 160 q 170 102 147 121 q 228 76 193 83 q 294 74 267 71 q 344 89 322 76 q 378 114 367 101 q 400 142 390 126 m 278 794 l 232 738 l 186 794 l 232 851 l 278 794 m 397 794 l 351 738 l 307 794 l 351 851 l 397 794 z "},"å":{"ha":568,"x_min":17,"x_max":567,"o":"m 506 61 q 519 36 511 47 q 535 19 528 25 q 550 8 543 13 q 561 2 557 4 q 565 0 565 0 l 461 0 q 428 13 442 0 q 411 43 414 25 l 403 90 l 397 85 q 375 64 389 76 q 324 27 361 51 q 256 -4 286 3 q 75 44 153 -25 q 33 113 49 69 q 18 195 18 157 q 28 263 18 233 l 378 429 q 400 460 394 435 l 400 510 q 399 519 400 515 q 378 597 396 564 q 271 636 344 660 q 251 626 264 633 q 205 585 239 618 q 142 508 171 553 l 54 592 q 232 663 174 658 q 397 647 354 672 q 440 622 439 624 q 494 519 494 581 l 494 114 l 506 61 m 400 142 l 400 410 l 389 410 l 135 247 l 124 229 q 123 216 124 225 q 126 183 122 207 q 138 140 129 160 q 170 102 147 121 q 228 76 193 83 q 294 74 267 71 q 344 89 322 76 q 378 114 367 101 q 400 142 390 126 m 292 719 q 260 729 275 719 q 237 756 246 739 q 228 794 228 774 q 247 847 228 825 q 292 869 265 869 q 337 847 318 869 q 356 794 356 825 q 337 742 356 764 q 292 719 318 719 m 286 840 q 274 823 279 839 q 271 786 268 807 q 292 750 276 760 q 299 749 296 747 q 310 766 306 750 q 310 801 314 782 q 290 840 304 831 q 288 842 289 842 q 286 840 286 842 z "},"æ":{"ha":939,"x_min":17,"x_max":929,"o":"m 825 172 l 929 193 l 890 126 q 794 31 851 65 q 672 -4 738 -4 q 545 34 604 -4 q 449 139 486 72 q 426 114 438 126 q 410 96 415 101 l 404 90 l 397 85 q 375 64 389 76 q 324 27 361 51 q 256 -4 286 3 q 75 44 153 -25 q 33 113 49 69 q 18 195 18 157 q 28 263 18 233 l 378 429 q 400 460 394 435 l 400 510 q 399 519 400 515 q 378 597 396 564 q 271 636 344 660 q 264 632 268 635 q 245 619 260 629 q 216 597 231 610 q 181 560 201 583 q 142 508 160 536 l 54 592 q 232 663 174 658 q 397 647 354 672 q 440 622 439 624 q 485 569 471 599 q 672 661 564 661 q 774 637 726 661 q 853 571 821 613 q 889 501 869 547 q 890 446 908 454 l 524 276 q 507 258 513 274 q 597 73 531 142 q 728 24 664 4 q 807 107 776 39 q 813 120 810 113 q 821 146 815 128 q 825 172 826 164 m 400 142 l 400 410 l 389 410 l 135 247 l 124 229 q 123 216 124 225 q 126 183 122 207 q 138 140 129 160 q 170 102 147 121 q 228 76 193 83 q 294 74 267 71 q 344 89 322 76 q 378 114 367 101 q 400 142 390 126 m 500 296 q 525 304 514 297 l 797 478 q 778 535 804 482 q 738 590 761 567 q 622 633 681 651 q 522 515 558 614 q 500 296 485 415 z "},"ç":{"ha":522,"x_min":24,"x_max":515,"o":"m 514 126 q 358 4 454 31 q 330 -44 336 -18 q 329 -87 324 -71 l 335 -103 q 306 -134 317 -122 q 274 -158 294 -146 q 231 -175 253 -171 l 171 -139 q 181 -142 175 -140 q 204 -149 188 -144 q 229 -147 221 -153 q 241 -137 236 -144 q 248 -122 246 -129 q 253 -99 250 -114 q 258 -74 256 -83 q 264 -60 261 -67 q 270 -50 267 -54 q 276 -44 274 -46 q 281 -40 279 -42 l 283 -39 l 351 3 q 297 -4 324 -4 q 103 93 183 -4 q 24 328 24 190 q 103 564 24 467 q 297 661 183 661 q 443 610 376 661 l 444 610 q 475 592 458 600 q 500 579 492 583 l 510 575 l 492 563 l 413 510 q 335 613 381 579 q 246 633 290 647 q 143 507 181 614 q 127 276 106 400 q 217 78 149 153 q 351 24 286 3 q 431 107 401 39 l 514 126 z "},"è":{"ha":539,"x_min":22,"x_max":533,"o":"m 149 276 q 131 258 138 274 q 222 73 156 142 q 351 24 289 4 q 431 107 401 39 l 514 126 q 419 31 476 65 q 297 -4 363 -4 q 103 93 183 -4 q 24 328 24 190 q 103 564 24 467 q 297 661 183 661 q 397 637 350 661 q 476 571 444 613 q 513 501 493 547 q 514 446 533 454 l 149 276 m 124 296 q 150 304 138 297 l 421 478 q 401 535 428 482 q 363 590 385 567 q 246 633 306 651 q 146 515 183 614 q 124 296 108 415 m 382 789 q 243 765 310 824 l 165 835 q 219 845 192 844 q 275 838 247 846 q 328 819 303 831 q 382 789 353 807 z "},"é":{"ha":539,"x_min":22,"x_max":533,"o":"m 149 276 q 131 258 138 274 q 222 73 156 142 q 351 24 289 4 q 431 107 401 39 l 514 126 q 419 31 476 65 q 297 -4 363 -4 q 103 93 183 -4 q 24 329 24 190 q 60 496 24 419 q 160 617 97 572 q 297 661 222 661 q 397 637 350 661 q 476 571 444 613 q 513 501 493 547 q 514 446 533 454 l 149 276 m 124 296 q 150 304 138 297 l 421 478 q 401 535 428 482 q 363 590 385 567 q 246 633 306 651 q 174 572 206 621 q 128 449 142 522 q 124 296 114 375 m 382 822 q 328 793 353 804 q 275 774 303 782 q 219 766 247 765 q 165 776 192 767 l 243 846 q 382 822 310 788 z "},"ê":{"ha":539,"x_min":22,"x_max":533,"o":"m 149 276 q 131 258 138 274 q 222 73 156 142 q 351 24 289 4 q 431 107 401 39 l 514 126 q 419 31 476 65 q 297 -4 363 -4 q 103 93 183 -4 q 24 329 24 190 q 60 496 24 419 q 160 617 97 572 q 297 661 222 661 q 397 637 350 661 q 476 571 444 613 q 513 501 493 547 q 514 446 533 454 l 149 276 m 124 296 q 150 304 138 297 l 421 478 q 401 535 428 482 q 363 590 385 567 q 246 633 306 651 q 146 515 183 614 q 124 296 108 415 m 274 847 q 259 831 272 844 q 242 813 246 817 q 227 798 239 810 q 210 782 215 786 q 192 769 204 778 q 173 758 181 761 q 154 751 165 754 q 132 747 143 749 l 179 842 q 194 839 185 839 q 212 841 203 839 q 230 846 221 843 q 247 851 239 849 q 260 857 254 854 q 269 861 267 860 l 274 864 q 368 842 339 832 l 414 747 q 392 752 403 749 q 374 758 382 756 q 353 769 365 761 q 336 782 342 778 q 319 799 331 786 q 303 814 307 811 q 287 831 300 817 q 274 847 274 846 z "},"ë":{"ha":539,"x_min":22,"x_max":533,"o":"m 149 276 q 131 258 138 274 q 222 73 156 142 q 351 24 289 4 q 431 107 401 39 l 514 126 q 419 31 476 65 q 297 -4 363 -4 q 103 93 183 -4 q 24 329 24 190 q 45 458 24 396 q 103 564 67 519 q 191 635 140 608 q 297 661 242 661 q 397 637 350 661 q 476 571 444 613 q 513 501 493 547 q 514 446 533 454 l 149 276 m 124 296 q 150 304 138 297 l 421 478 q 401 535 428 482 q 363 590 385 567 q 246 633 306 651 q 146 515 183 614 q 124 296 108 415 m 258 806 l 213 749 l 167 806 l 213 863 l 258 806 m 379 806 l 333 749 l 288 806 l 333 863 l 379 806 z "},"ì":{"ha":247,"x_min":8,"x_max":244,"o":"m 176 92 q 183 63 178 76 q 194 41 188 50 q 207 24 200 32 q 220 13 214 17 q 232 6 226 8 q 241 1 238 3 q 244 0 244 0 l 176 0 l 81 0 l 81 0 l 13 0 q 18 3 14 1 q 33 11 22 4 q 52 27 43 18 q 69 53 61 36 q 81 92 78 71 l 81 510 q 36 567 81 546 l 8 575 l 8 575 l 81 606 l 176 647 l 176 518 l 176 92 m 156 765 q 18 789 90 824 q 72 819 47 807 q 124 838 96 831 q 179 845 151 846 q 235 835 207 844 l 156 765 z "},"í":{"ha":247,"x_min":8,"x_max":244,"o":"m 176 92 q 183 63 178 76 q 194 41 188 50 q 207 24 200 32 q 220 13 214 17 q 232 6 226 8 q 241 1 238 3 q 244 0 244 0 l 176 0 l 81 0 l 81 0 l 13 0 q 18 3 14 1 q 33 11 22 4 q 52 27 43 18 q 69 53 61 36 q 81 92 78 71 l 81 510 q 36 567 81 546 l 8 575 l 8 575 l 81 606 l 176 647 l 176 518 l 176 92 m 235 822 q 181 793 206 804 q 129 774 157 782 q 73 766 101 765 q 18 776 44 767 l 97 846 q 235 822 163 788 z "},"î":{"ha":246,"x_min":-15,"x_max":267,"o":"m 175 92 q 183 63 178 76 q 194 41 188 50 q 207 24 200 32 q 220 13 214 17 q 232 6 226 8 q 240 1 238 3 q 243 0 243 0 l 175 0 l 79 0 l 79 0 l 11 0 q 18 3 14 1 q 33 11 22 4 q 51 27 43 18 q 68 53 60 36 q 79 92 76 71 l 79 510 q 35 567 79 546 l 8 575 l 8 575 l 79 606 l 175 647 l 175 518 l 175 92 m 125 847 q 113 833 122 843 q 99 818 103 822 q 85 803 94 814 q 69 789 75 793 q 55 777 64 785 q 38 765 46 769 q 22 757 31 761 q 3 751 13 753 q -15 747 -6 749 l 31 842 q 53 840 42 839 q 78 844 65 840 q 102 853 92 849 q 119 860 113 857 l 125 864 q 219 842 192 832 l 267 747 q 244 752 256 749 q 226 758 233 756 q 206 769 218 761 q 189 782 194 778 q 172 799 183 786 q 156 814 160 811 q 140 831 153 817 q 125 847 126 846 z "},"ï":{"ha":256,"x_min":10,"x_max":246,"o":"m 178 92 q 200 35 182 58 q 230 6 218 13 q 246 0 242 0 l 178 0 l 82 0 l 82 0 l 14 0 q 17 1 14 0 q 25 5 19 1 q 37 13 31 8 q 51 24 43 17 q 64 41 58 32 q 74 63 69 50 q 82 92 79 76 l 82 510 q 38 567 82 546 l 10 575 l 10 575 l 82 606 l 178 647 l 178 518 l 178 92 m 113 806 l 68 749 l 22 806 l 68 863 l 113 806 m 233 806 l 188 749 l 142 806 l 188 863 l 233 806 z "},"ñ":{"ha":644,"x_min":8,"x_max":636,"o":"m 567 92 q 590 35 572 58 q 619 6 607 13 q 636 0 632 0 l 403 0 q 410 3 406 1 q 424 11 414 4 q 443 27 435 18 q 460 53 451 36 q 472 92 468 71 l 472 447 q 464 492 471 467 q 438 545 457 518 q 390 585 418 572 q 315 583 363 599 q 210 519 268 568 l 188 499 q 176 465 176 488 l 176 92 q 188 53 179 71 q 205 27 196 36 q 223 11 214 18 q 239 3 232 4 l 244 0 l 13 0 q 14 1 13 0 q 19 3 15 1 q 28 8 24 6 q 38 14 32 10 q 48 23 43 18 q 58 35 53 28 q 68 50 64 42 q 76 69 72 58 q 81 92 79 79 l 81 274 l 81 510 q 36 567 81 546 l 8 575 l 8 575 l 81 606 l 176 647 l 176 647 l 176 543 l 176 524 l 182 529 q 264 585 236 567 q 310 616 294 607 q 353 636 325 625 q 407 647 382 647 q 472 635 439 647 q 486 629 479 632 q 528 601 510 618 q 567 519 567 571 l 567 92 m 206 782 q 190 767 196 775 q 183 756 185 760 l 183 753 l 183 785 l 319 865 q 322 861 319 864 q 331 851 324 858 q 345 839 338 844 q 365 828 353 833 q 392 819 378 822 q 424 819 406 817 q 461 828 442 821 l 379 756 q 375 751 378 753 q 359 746 372 749 q 326 753 346 743 q 301 763 318 756 q 272 775 283 771 q 246 783 260 779 q 222 788 232 788 q 206 782 211 788 z "},"ò":{"ha":594,"x_min":24,"x_max":571,"o":"m 406 789 q 268 765 333 824 l 189 835 q 244 845 215 844 q 300 838 272 846 q 352 818 328 829 q 406 789 376 807 m 103 559 q 143 608 103 559 q 297 657 183 657 q 490 559 410 657 q 569 324 569 461 q 490 88 569 186 q 297 -10 410 -10 q 103 88 183 -10 q 24 324 24 186 q 103 559 24 461 m 351 18 q 445 141 415 38 q 453 371 475 244 q 371 573 432 497 q 246 629 310 649 q 143 501 181 608 q 127 271 106 394 q 217 73 149 147 q 351 18 286 -1 z "},"ó":{"ha":594,"x_min":24,"x_max":571,"o":"m 406 822 q 352 792 376 804 q 299 772 328 781 q 243 765 271 764 q 189 776 215 767 l 268 844 q 406 822 333 788 m 103 559 q 143 608 103 559 q 297 657 183 657 q 490 559 410 657 q 569 324 569 461 q 490 88 569 186 q 297 -10 410 -10 q 103 88 183 -10 q 24 324 24 186 q 103 559 24 461 m 351 18 q 445 141 415 38 q 453 371 475 244 q 371 573 432 497 q 246 629 310 649 q 143 501 181 608 q 127 271 106 394 q 217 73 149 147 q 351 18 286 -1 z "},"ô":{"ha":594,"x_min":24,"x_max":571,"o":"m 297 836 q 284 822 294 833 q 270 807 274 811 q 257 793 267 803 q 242 778 247 783 q 226 766 236 774 q 210 755 217 758 q 193 747 203 751 q 174 740 183 742 q 156 738 165 738 l 203 832 q 240 832 217 826 q 281 846 264 838 l 297 853 q 392 832 363 822 l 438 738 q 417 741 428 738 q 397 748 406 744 q 377 760 389 751 q 360 772 365 768 q 342 788 354 776 q 327 803 331 800 q 311 821 324 807 q 297 836 299 835 m 103 569 q 143 618 103 569 q 297 667 183 667 q 490 569 410 667 q 569 333 569 471 q 490 97 569 194 q 297 0 410 0 q 103 97 183 0 q 24 333 24 194 q 103 569 24 471 m 351 28 q 445 151 415 47 q 453 381 475 254 q 371 583 432 507 q 246 638 310 658 q 143 511 181 618 q 127 281 106 404 q 217 83 149 157 q 351 28 286 8 z "},"õ":{"ha":594,"x_min":24,"x_max":571,"o":"m 103 559 q 143 608 103 559 q 297 657 183 657 q 490 559 410 657 q 569 324 569 461 q 490 88 569 186 q 297 -10 410 -10 q 103 88 183 -10 q 24 324 24 186 q 103 559 24 461 m 351 18 q 445 141 415 38 q 453 371 475 244 q 371 573 432 497 q 246 629 310 649 q 170 562 203 615 q 126 433 138 508 q 126 271 114 358 q 217 73 149 147 q 351 18 286 -1 m 181 782 q 165 767 171 774 q 158 756 160 760 l 158 751 l 158 783 l 294 865 q 297 861 294 864 q 306 851 299 858 q 320 839 313 844 q 340 828 328 833 q 367 819 353 822 q 399 818 381 817 q 436 826 417 819 l 354 756 q 352 753 353 754 q 347 749 351 751 q 338 746 343 747 q 324 746 333 744 q 301 751 314 747 q 276 763 293 756 q 247 774 258 769 q 221 783 235 779 q 197 788 207 788 q 181 782 186 788 z "},"ö":{"ha":594,"x_min":24,"x_max":571,"o":"m 103 559 q 143 608 103 559 q 297 657 183 657 q 490 559 410 657 q 569 324 569 461 q 490 88 569 186 q 297 -10 410 -10 q 103 88 183 -10 q 24 324 24 186 q 103 559 24 461 m 351 18 q 445 141 415 38 q 453 371 475 244 q 371 573 432 497 q 246 629 310 649 q 170 562 203 615 q 126 433 138 508 q 126 271 114 358 q 217 73 149 147 q 351 18 286 -1 m 282 806 l 236 747 l 192 806 l 236 863 l 282 806 m 403 806 l 357 747 l 311 806 l 357 863 l 403 806 z "},"ø":{"ha":689,"x_min":3,"x_max":690,"o":"m 610 576 l 564 525 q 619 324 619 436 q 540 88 619 186 q 346 -10 460 -10 q 160 81 239 -10 l 128 44 q 151 3 96 14 q 193 0 169 0 l 3 0 l 122 132 q 74 324 74 218 q 153 559 74 461 q 346 657 233 657 q 525 575 449 657 l 533 583 q 552 607 546 597 q 563 622 558 617 q 563 633 567 628 q 558 640 558 639 q 547 644 558 640 q 536 649 536 649 l 565 649 l 565 649 l 690 649 l 610 576 m 176 271 q 192 208 182 239 l 463 506 q 385 608 429 574 q 296 629 340 642 q 220 562 253 615 q 176 433 188 508 q 176 271 164 358 m 503 371 q 488 440 497 407 l 218 144 q 305 39 254 74 q 401 18 356 4 q 495 141 465 38 q 503 371 525 244 z "},"ù":{"ha":636,"x_min":4,"x_max":635,"o":"m 428 789 q 290 765 356 824 l 211 835 q 240 842 225 839 q 268 844 254 844 q 295 843 282 844 q 322 838 308 842 q 349 829 336 833 q 375 818 361 825 q 401 804 389 811 q 428 789 414 797 m 575 60 q 635 0 593 14 l 567 0 l 529 0 q 497 12 511 0 q 481 42 483 24 l 468 114 q 357 38 392 60 q 179 -1 261 -28 q 92 67 119 18 q 81 98 85 81 q 77 124 78 115 q 77 158 76 132 q 78 188 78 185 q 78 339 78 218 l 78 510 q 33 567 78 546 l 6 575 q 13 578 6 575 q 31 586 21 582 q 52 595 42 590 q 69 603 63 600 l 78 606 l 174 647 q 174 615 174 647 q 174 551 174 583 l 174 519 q 174 501 174 519 q 174 454 174 483 q 174 390 174 425 q 174 320 174 356 q 174 256 174 285 q 174 210 174 228 l 174 192 q 179 156 174 176 q 196 110 185 135 q 228 69 207 85 q 276 49 249 54 q 345 60 304 43 q 435 118 386 78 l 457 140 q 468 172 468 151 l 468 510 q 424 567 468 546 l 397 575 q 401 577 397 575 q 410 582 404 579 q 424 588 417 585 q 440 594 432 590 q 454 600 447 597 q 464 604 461 603 l 468 606 l 564 647 q 564 615 564 647 q 564 551 564 583 l 564 519 l 564 114 l 575 60 z "},"ú":{"ha":636,"x_min":4,"x_max":635,"o":"m 428 822 q 375 792 400 804 q 322 772 350 781 q 267 765 294 764 q 211 776 239 767 l 290 844 q 428 822 356 788 m 575 60 q 635 0 593 14 l 567 0 l 529 0 q 497 12 511 0 q 481 42 483 24 l 468 114 q 357 38 392 60 q 179 -1 261 -28 q 92 67 119 18 q 81 98 85 81 q 77 124 78 115 q 77 158 76 132 q 78 188 78 185 q 78 339 78 218 l 78 510 q 33 567 78 546 l 6 575 q 13 578 6 575 q 31 586 21 582 q 52 595 42 590 q 69 603 63 600 l 78 606 l 174 647 q 174 615 174 647 q 174 551 174 583 l 174 519 q 174 501 174 519 q 174 454 174 483 q 174 390 174 425 q 174 320 174 356 q 174 256 174 285 q 174 210 174 228 l 174 192 q 181 146 174 172 q 207 92 188 119 q 254 53 226 65 q 329 55 282 40 q 435 118 376 69 l 457 140 q 468 172 468 151 l 468 510 q 424 567 468 546 l 397 575 q 401 577 397 575 q 410 582 404 579 q 424 588 417 585 q 440 594 432 590 q 454 600 447 597 q 464 604 461 603 l 468 606 l 564 647 q 564 615 564 647 q 564 551 564 583 l 564 519 l 564 114 l 575 60 z "},"û":{"ha":636,"x_min":4,"x_max":635,"o":"m 319 826 q 306 811 318 825 q 290 794 293 797 q 274 778 286 790 q 257 763 263 767 q 240 750 251 758 q 219 738 228 742 q 201 731 211 735 q 179 728 190 728 l 226 822 q 264 822 240 817 q 304 836 288 828 l 319 843 q 414 822 386 813 l 461 728 q 439 731 450 728 q 420 738 428 735 q 401 750 413 742 q 383 763 389 758 q 365 778 378 767 q 350 794 353 790 q 334 812 347 797 q 319 826 321 826 m 575 60 q 635 0 594 14 l 567 0 l 529 0 q 497 12 511 0 q 481 42 483 24 l 468 114 q 357 38 392 60 q 179 -1 261 -28 q 92 67 119 18 q 81 98 85 81 q 77 124 78 115 q 77 158 76 132 q 78 188 78 185 q 78 339 78 218 l 78 510 q 33 567 78 546 l 6 575 q 24 583 6 575 q 60 599 42 590 l 78 606 l 174 647 q 174 615 174 647 q 174 551 174 583 l 174 519 q 174 501 174 519 q 174 454 174 483 q 174 390 174 425 q 174 320 174 356 q 174 256 174 285 q 174 210 174 228 l 174 192 q 181 146 174 172 q 207 92 188 119 q 254 53 226 65 q 329 55 282 40 q 435 118 376 69 l 457 140 q 468 172 468 151 l 468 510 q 424 567 468 546 l 397 575 q 415 583 397 575 q 450 599 432 590 l 468 606 l 564 647 q 564 615 564 647 q 564 551 564 583 l 564 519 l 564 114 l 575 60 z "},"ü":{"ha":636,"x_min":4,"x_max":635,"o":"m 306 806 l 260 747 l 214 806 l 260 863 l 306 806 m 426 806 l 381 747 l 335 806 l 381 863 l 426 806 m 575 60 q 635 0 594 14 l 567 0 l 529 0 q 506 6 517 0 q 489 21 496 11 q 481 42 482 31 l 468 114 q 357 38 392 60 q 179 -1 261 -28 q 92 67 119 18 q 81 98 85 81 q 77 124 78 115 q 77 158 76 132 q 78 188 78 185 q 78 339 78 218 l 78 510 q 33 567 78 546 l 6 575 q 24 583 6 575 q 60 599 42 590 l 78 606 l 174 647 q 174 615 174 647 q 174 551 174 583 l 174 519 q 174 501 174 519 q 174 454 174 483 q 174 390 174 425 q 174 320 174 356 q 174 256 174 285 q 174 210 174 228 l 174 192 q 181 146 174 172 q 207 92 188 119 q 254 53 226 65 q 329 55 282 40 q 435 118 376 69 l 457 140 q 468 172 468 151 l 468 510 q 424 567 468 546 l 397 575 q 415 583 397 575 q 450 599 432 590 l 468 606 l 564 647 q 564 615 564 647 q 564 551 564 583 l 564 519 l 564 114 l 575 60 z "},"ý":{"ha":615,"x_min":6,"x_max":565,"o":"m 442 822 q 388 792 413 804 q 336 772 364 781 q 281 765 308 764 q 225 776 253 767 l 304 844 q 442 822 369 788 m 440 0 l 442 0 l 442 -1 l 440 0 m 564 0 q 564 -128 564 -101 q 563 -199 564 -193 q 549 -247 560 -228 q 542 -260 546 -253 q 472 -312 517 -296 q 470 -313 472 -312 q 468 -314 468 -314 q 318 -307 400 -335 q 253 -279 282 -296 q 247 -276 253 -279 q 233 -269 240 -272 q 217 -260 226 -265 q 201 -249 208 -254 q 186 -240 193 -244 q 176 -231 179 -235 q 172 -226 172 -228 l 258 -144 q 324 -261 292 -222 q 380 -299 356 -300 q 423 -275 404 -299 q 453 -212 442 -251 q 468 -128 464 -174 l 468 114 q 357 38 386 56 q 179 -1 261 -29 q 92 67 119 18 q 81 97 85 79 q 77 124 78 115 q 77 158 76 133 q 78 188 78 183 q 78 339 78 213 l 78 510 q 33 567 78 546 l 6 575 l 78 606 l 174 647 q 174 634 174 647 q 174 602 174 621 q 174 564 174 583 q 174 532 174 544 l 174 518 l 174 192 q 177 160 174 178 q 190 123 181 143 q 212 85 199 103 q 247 58 225 68 q 294 47 268 47 q 356 65 319 47 q 435 118 393 83 l 457 140 q 468 161 464 147 l 468 510 q 422 567 467 546 l 396 575 l 468 606 l 563 647 l 563 647 l 564 647 l 564 646 l 564 647 q 564 634 564 647 q 564 602 564 621 q 564 564 564 583 q 564 532 564 544 l 564 518 l 564 136 l 564 0 z "},"ÿ":{"ha":615,"x_min":6,"x_max":565,"o":"m 315 806 l 271 747 l 225 806 l 271 863 l 315 806 m 436 806 l 390 747 l 344 806 l 390 863 l 436 806 m 440 0 l 442 0 l 442 -1 l 440 0 m 564 0 q 564 -128 564 -101 q 563 -199 564 -193 q 549 -247 560 -228 q 542 -260 546 -253 q 472 -312 517 -296 q 470 -313 472 -312 q 468 -314 468 -314 q 318 -307 400 -335 q 253 -279 282 -296 q 247 -276 253 -279 q 233 -269 240 -272 q 217 -260 226 -265 q 201 -249 208 -254 q 186 -240 193 -244 q 176 -231 179 -235 q 172 -226 172 -228 l 258 -144 q 324 -261 292 -222 q 380 -299 356 -300 q 423 -275 404 -299 q 453 -212 442 -251 q 468 -128 464 -174 l 468 114 q 357 38 386 56 q 179 -1 261 -29 q 92 67 119 18 q 81 97 85 79 q 77 124 78 115 q 77 158 76 133 q 78 188 78 183 q 78 339 78 213 l 78 510 q 33 567 78 546 l 6 575 l 78 606 l 174 647 q 174 634 174 647 q 174 602 174 621 q 174 564 174 583 q 174 532 174 544 l 174 518 l 174 192 q 177 160 174 178 q 190 123 181 143 q 212 85 199 103 q 247 58 225 68 q 294 47 268 47 q 356 65 319 47 q 435 118 393 83 l 457 140 q 468 161 464 147 l 468 510 q 422 567 467 546 l 396 575 l 468 606 l 563 647 l 563 647 l 564 647 l 564 646 l 564 647 q 564 634 564 647 q 564 602 564 621 q 564 564 564 583 q 564 532 564 544 l 564 518 l 564 136 l 564 0 z "},"ı":{"ha":246,"x_min":8,"x_max":244,"o":"m 176 92 q 183 63 178 76 q 194 41 188 50 q 207 24 200 32 q 220 13 214 17 q 232 6 226 8 q 241 1 238 3 q 244 0 244 0 l 176 0 l 81 0 l 81 0 l 13 0 q 18 3 14 1 q 33 11 22 4 q 52 27 43 18 q 69 53 61 36 q 81 92 78 71 l 81 510 q 36 567 81 546 l 8 575 l 8 575 l 81 606 l 176 647 l 176 518 l 176 92 z "},"Œ":{"ha":1250,"x_min":19,"x_max":1251,"o":"m 803 38 l 808 36 l 1206 60 l 1169 0 l 618 0 q 625 3 621 1 q 640 11 629 4 q 658 27 650 18 q 675 53 667 36 q 686 92 683 71 l 686 144 q 559 29 633 71 q 401 -12 485 -12 q 253 24 324 -12 q 132 122 183 60 q 51 270 81 185 q 21 450 21 356 q 72 683 21 576 q 210 852 122 790 q 401 914 297 914 q 483 903 443 914 q 560 872 524 892 q 628 822 596 851 q 686 757 660 793 l 686 800 q 642 856 686 836 l 614 865 l 686 896 l 782 936 l 782 936 l 782 897 l 808 890 l 1153 890 l 1153 889 l 1165 889 q 1164 883 1164 886 q 1165 869 1164 879 q 1167 848 1165 858 q 1175 824 1169 838 q 1190 801 1181 811 q 1215 781 1199 790 q 1251 767 1231 771 l 1133 744 q 1131 744 1132 744 q 1124 743 1129 743 q 1113 745 1118 743 q 1101 754 1108 747 q 1089 772 1094 761 q 1072 805 1083 782 q 1054 839 1061 828 l 792 854 l 782 847 l 782 808 l 782 638 l 782 410 l 790 414 l 807 422 l 813 424 l 826 431 l 1000 515 l 1046 538 l 1060 544 l 1076 553 l 1100 565 l 1156 592 q 1169 601 1163 593 q 1168 578 1169 593 q 1167 572 1168 576 q 1167 567 1167 568 l 1135 544 l 1104 524 l 1088 511 l 1056 489 l 896 374 l 839 374 l 831 374 l 796 374 l 782 374 l 782 92 q 803 38 786 61 m 478 26 q 561 85 522 39 q 626 197 600 131 q 661 347 651 264 q 656 517 671 429 q 604 676 640 601 q 522 799 568 751 q 425 867 476 846 q 331 875 374 889 q 245 815 286 861 q 176 701 204 768 q 136 549 147 633 q 140 378 125 465 q 218 176 160 265 q 347 47 276 86 q 478 26 418 7 z "},"œ":{"ha":988,"x_min":22,"x_max":983,"o":"m 597 272 q 581 253 586 268 q 672 68 606 138 q 801 18 738 -1 q 881 101 850 33 l 964 121 q 869 26 925 61 q 747 -10 813 -10 q 619 29 678 -10 q 522 135 560 68 q 424 29 483 68 q 297 -10 365 -10 q 103 88 183 -10 q 24 324 24 186 q 103 559 24 461 q 297 657 183 657 q 424 618 365 657 q 522 513 483 579 q 619 618 560 579 q 747 657 678 657 q 847 633 800 657 q 926 565 894 608 q 963 497 943 543 q 964 440 982 450 l 597 272 m 351 18 q 445 141 415 38 q 453 371 475 244 q 371 573 432 497 q 246 629 310 649 q 143 501 181 608 q 127 271 106 394 q 217 73 149 147 q 351 18 286 -1 m 574 292 q 600 299 588 292 l 871 472 q 851 529 878 478 q 811 586 835 561 q 696 629 754 647 q 595 510 632 610 q 574 292 558 410 z "},"Š":{"ha":608,"x_min":22,"x_max":590,"o":"m 306 979 q 211 1001 239 1011 l 164 1094 q 186 1091 175 1094 q 206 1085 197 1088 q 225 1073 214 1082 q 242 1060 236 1064 q 260 1044 247 1057 q 275 1029 272 1032 q 291 1012 278 1026 q 306 996 304 997 q 319 1011 307 997 q 335 1028 332 1025 q 351 1044 339 1032 q 369 1060 363 1057 q 386 1072 375 1064 q 406 1084 397 1081 q 425 1091 414 1088 q 446 1094 436 1094 l 400 1001 q 363 1000 386 1006 q 322 988 339 994 l 306 979 m 539 329 q 578 256 568 288 q 586 171 589 225 q 558 94 585 131 q 490 31 531 57 q 385 -3 451 4 q 252 -3 319 -11 q 125 25 185 6 l 24 63 l 24 254 q 67 148 24 224 q 132 56 110 72 q 465 157 444 -39 q 463 199 468 178 q 442 243 457 221 q 413 284 426 265 q 374 326 399 303 q 333 364 349 350 q 290 402 318 378 q 251 435 261 426 q 199 480 218 463 q 151 528 181 497 q 99 588 121 558 q 64 646 78 617 q 54 789 32 715 q 133 897 76 863 q 289 931 192 933 q 556 868 424 926 q 553 783 556 846 q 550 699 550 721 q 510 792 549 731 q 446 875 472 854 q 379 892 421 885 q 335 899 354 897 q 288 901 315 901 q 241 896 261 901 q 203 876 221 890 q 175 839 185 861 q 169 750 161 803 q 195 673 176 710 q 248 599 214 636 q 303 542 282 563 q 368 483 325 521 q 424 438 383 469 q 491 382 464 407 q 539 329 518 357 z "},"š":{"ha":460,"x_min":25,"x_max":442,"o":"m 432 190 q 422 98 440 143 q 363 26 403 53 q 240 0 314 -1 q 100 24 167 1 l 26 50 l 26 186 q 58 110 26 164 q 104 44 89 56 q 344 117 329 -22 q 342 147 346 132 q 328 178 339 163 q 307 208 317 194 q 278 238 297 221 q 249 264 260 254 q 218 291 239 274 q 190 314 197 308 q 56 464 83 406 q 48 566 32 514 q 106 644 64 618 q 218 667 147 669 q 410 622 314 664 q 408 563 410 607 q 406 503 406 518 q 376 569 404 525 q 331 628 349 613 q 283 640 313 635 q 175 640 214 653 q 142 613 154 632 q 129 571 129 594 q 189 475 129 528 q 293 381 242 429 q 315 359 299 375 q 341 335 332 343 q 363 313 350 326 q 386 286 376 299 q 404 260 396 274 q 432 190 426 225 m 231 757 q 136 779 164 789 l 90 874 q 111 869 100 872 q 131 863 122 865 q 150 851 139 860 q 167 839 161 843 q 185 822 172 835 q 200 807 197 810 q 216 790 203 804 q 231 774 229 775 q 243 788 233 778 q 257 803 253 799 q 271 817 261 807 q 286 832 281 828 q 301 844 292 836 q 318 856 311 851 q 334 864 325 860 q 353 870 343 868 q 371 874 363 872 l 325 779 q 288 779 311 785 q 247 765 264 774 l 231 757 z "},"Ÿ":{"ha":574,"x_min":-17,"x_max":592,"o":"m 549 872 l 321 481 l 321 92 q 342 35 325 58 q 374 7 360 13 l 389 0 l 321 0 l 225 0 l 225 0 l 157 0 q 163 3 160 1 q 178 11 167 4 q 197 27 189 18 q 214 53 206 36 q 225 92 222 71 l 225 456 l 32 860 q -15 936 6 913 q -16 937 -15 936 q -17 938 -17 938 l 129 938 q 129 921 128 928 q 146 875 129 910 q 264 638 158 847 q 301 564 289 589 l 321 599 l 465 860 q 500 938 493 908 l 592 938 q 549 872 569 911 m 285 1038 l 239 979 l 193 1038 l 239 1094 l 285 1038 m 406 1038 l 360 979 l 314 1038 l 360 1094 l 406 1038 z "},"ž":{"ha":439,"x_min":10,"x_max":429,"o":"m 367 642 l 429 642 q 422 632 425 638 q 421 631 422 632 q 415 622 418 626 q 414 621 414 621 q 407 611 410 615 q 407 610 407 611 q 400 597 403 604 l 371 546 q 315 434 349 501 q 220 238 282 367 q 146 75 158 108 q 225 60 193 64 q 299 64 257 57 q 379 93 342 71 l 379 92 q 406 151 406 132 q 408 92 406 136 q 410 32 410 47 q 379 19 396 25 q 301 -3 342 6 l 121 -3 q 119 -4 119 -4 l 10 -4 q 17 6 13 0 q 17 6 17 6 q 18 7 18 6 q 24 15 21 11 q 25 17 24 15 q 32 26 28 22 q 32 28 32 26 q 39 40 35 33 l 68 92 q 281 565 260 489 q 172 578 232 581 q 58 544 111 575 l 58 546 q 33 486 33 506 q 31 546 32 501 q 28 606 29 590 q 58 618 43 613 q 138 640 97 632 l 301 640 q 301 642 301 642 l 367 642 m 219 747 q 125 769 153 779 l 79 863 q 100 859 89 863 q 119 853 111 856 q 139 841 128 850 q 156 828 150 832 q 174 813 161 825 q 189 797 186 800 q 205 780 192 794 q 219 764 218 765 q 233 779 221 765 q 249 797 246 793 q 265 813 253 800 q 283 828 276 825 q 300 840 289 832 q 319 852 311 849 q 339 859 328 856 q 360 863 350 863 l 314 769 q 276 768 300 774 q 236 756 253 763 l 219 747 z "},"–":{"ha":817,"x_min":28,"x_max":789,"o":"m 674 497 q 708 505 692 500 q 736 516 725 510 q 757 529 747 522 q 772 542 767 536 q 781 554 778 549 q 786 563 785 560 l 788 565 l 788 333 q 784 340 786 336 q 774 355 782 344 q 753 374 765 365 q 720 390 742 382 q 674 401 699 399 l 142 401 q 95 391 117 399 q 62 374 74 383 q 42 355 50 364 q 31 340 33 346 l 28 333 l 28 565 q 31 560 29 564 q 42 545 33 556 q 62 526 50 535 q 95 509 74 518 q 142 497 117 500 l 674 497 z "},"—":{"ha":1032,"x_min":28,"x_max":1004,"o":"m 890 497 q 937 508 915 500 q 969 525 958 517 q 990 544 981 533 q 1001 559 999 556 q 1004 565 1003 563 l 1004 333 q 1003 337 1004 335 q 997 345 1001 339 q 988 358 993 351 q 974 371 983 364 q 953 384 964 378 q 925 395 942 390 q 890 401 908 400 l 142 401 q 95 391 117 399 q 62 374 74 383 q 42 355 50 364 q 31 340 33 346 l 28 333 l 28 565 q 31 560 29 564 q 42 545 33 556 q 62 526 50 535 q 95 509 74 518 q 142 497 117 500 l 889 497 l 890 497 z "},"‘":{"ha":200,"x_min":24,"x_max":175,"o":"m 57 797 q 141 754 107 792 q 175 665 175 717 l 175 649 l 25 649 l 25 717 q 42 799 25 761 q 160 924 85 897 l 143 824 q 57 797 90 825 z "},"’":{"ha":200,"x_min":25,"x_max":175,"o":"m 143 774 q 59 818 93 781 q 25 907 25 856 l 25 924 l 175 924 l 175 854 q 158 774 175 811 q 40 649 115 675 l 57 749 q 143 774 110 746 z "},"“":{"ha":414,"x_min":24,"x_max":389,"o":"m 57 797 q 141 754 107 792 q 175 665 175 717 l 175 649 l 25 649 l 25 717 q 42 799 25 761 q 160 924 85 897 l 143 824 q 57 797 90 825 m 271 797 q 355 754 321 792 q 389 665 389 717 l 389 649 l 239 649 l 239 717 q 256 799 239 761 q 374 924 299 897 l 357 824 q 271 797 304 825 z "},"”":{"ha":414,"x_min":25,"x_max":389,"o":"m 239 924 l 389 924 l 389 854 q 372 774 389 811 q 254 649 329 675 l 271 749 q 357 774 324 746 q 273 818 307 781 q 239 907 239 856 l 239 924 m 25 907 l 25 924 l 175 924 l 175 854 q 158 774 175 811 q 40 649 115 675 l 57 749 q 143 774 110 746 q 97 788 118 776 q 59 817 75 800 q 34 858 43 835 q 25 907 25 882 z "},"•":{"ha":283,"x_min":28,"x_max":256,"o":"m 256 339 l 28 339 l 28 565 l 256 565 l 256 339 z "},"…":{"ha":638,"x_min":19,"x_max":617,"o":"m 19 136 l 19 153 l 169 153 l 169 83 q 153 3 169 40 l 138 4 q 53 47 88 10 q 19 136 19 85 m 243 136 l 243 153 l 393 153 l 393 83 q 376 3 393 40 l 361 4 q 277 47 311 10 q 243 136 243 85 m 467 153 l 617 153 l 617 83 q 600 3 617 40 l 585 4 q 501 47 535 10 q 467 136 467 85 l 467 153 z "},"‹":{"ha":261,"x_min":28,"x_max":235,"o":"m 57 453 q 85 427 60 450 q 116 398 110 404 q 144 371 122 392 q 172 340 165 350 q 194 309 179 329 q 215 274 210 289 q 226 240 221 260 q 233 201 232 221 l 67 285 q 65 351 75 310 q 42 424 56 393 l 28 453 q 67 619 83 569 l 233 703 q 226 664 232 683 q 215 630 221 644 q 194 595 210 615 q 172 565 179 575 q 144 533 165 556 q 117 506 122 511 q 85 478 111 501 q 57 453 60 454 z "},"›":{"ha":261,"x_min":25,"x_max":233,"o":"m 203 451 q 175 477 200 454 q 144 506 150 500 q 116 533 138 513 q 88 565 94 554 q 65 595 81 575 q 44 630 50 615 q 33 664 39 644 q 26 703 28 683 l 193 619 q 190 581 189 603 q 199 536 192 558 q 213 495 206 514 q 226 464 221 476 l 232 451 q 193 285 176 333 l 26 201 q 31 235 28 218 q 42 267 35 251 q 57 297 50 283 q 78 326 64 310 q 100 353 92 343 q 126 380 108 363 q 151 404 143 397 q 178 429 158 411 q 203 451 197 447 z "},"€":{"ha":729,"x_min":33,"x_max":719,"o":"m 622 158 l 718 186 q 669 110 697 144 q 610 52 642 76 q 542 15 578 28 q 468 3 506 3 q 338 44 399 3 q 233 158 276 85 q 168 324 189 231 l 97 324 q 72 315 83 321 q 53 300 60 308 q 42 285 47 292 q 36 272 38 278 l 35 268 l 35 324 l 35 403 l 35 403 l 35 458 q 40 446 36 454 q 59 422 43 438 q 97 403 75 407 l 156 403 q 153 469 153 436 q 156 533 153 500 l 97 533 q 72 524 83 531 q 53 509 60 517 q 42 494 47 501 q 36 482 38 486 l 35 476 l 35 533 l 35 611 l 35 611 l 35 668 q 40 654 36 663 q 59 631 43 646 q 97 611 75 615 l 167 611 q 281 845 199 754 q 468 936 364 936 q 552 919 511 936 q 628 872 593 903 q 692 797 664 840 l 601 724 q 512 869 564 821 q 408 897 460 917 q 318 799 358 878 q 263 611 278 721 l 381 611 l 446 611 l 474 533 l 475 532 l 388 533 l 257 533 q 263 403 254 467 l 381 403 l 446 403 l 474 324 l 475 324 l 388 324 l 278 324 q 389 99 314 181 q 531 42 464 17 q 622 158 588 63 z "},"":{"ha":574,"x_min":1,"x_max":524,"o":"m 524 -126 q 522 -199 524 -192 q 508 -246 519 -226 q 501 -258 506 -253 q 432 -311 476 -294 q 426 -312 428 -312 q 278 -306 360 -333 q 213 -278 242 -294 q 208 -276 213 -278 q 199 -271 204 -274 q 188 -265 194 -268 q 175 -258 181 -261 q 163 -250 169 -254 q 150 -242 156 -246 q 140 -235 144 -239 q 134 -229 136 -232 q 132 -225 132 -226 l 218 -143 q 273 -248 246 -210 q 322 -294 300 -286 q 363 -292 343 -301 q 395 -257 382 -283 q 417 -197 408 -231 q 426 -128 425 -164 l 426 531 q 382 588 426 567 l 357 596 l 185 596 l 167 583 l 167 92 q 188 35 171 58 q 219 7 206 13 l 235 0 l 167 0 l 71 0 l 71 0 l 3 0 q 9 3 6 1 q 24 11 13 4 q 43 27 35 18 q 60 53 51 36 q 71 92 68 71 l 71 606 q 65 626 68 614 q 55 674 61 639 q 49 736 49 708 q 172 921 53 871 q 319 931 244 951 q 451 838 394 910 l 353 772 q 351 778 353 775 q 346 794 350 782 q 336 817 342 806 q 322 843 331 829 q 304 869 314 857 q 281 891 294 881 q 252 906 267 901 q 218 910 238 911 q 178 900 199 910 q 117 842 136 883 q 101 759 97 800 q 124 683 106 718 q 167 642 142 649 l 201 632 l 433 632 l 522 706 l 522 668 l 522 540 l 522 6 l 522 0 q 524 -126 522 -106 z "},"ﬁ":{"ha":594,"x_min":1,"x_max":592,"o":"m 522 92 q 588 1 532 24 q 590 0 589 0 l 522 0 l 426 0 l 426 0 l 358 0 q 365 3 361 1 q 380 11 369 4 q 399 27 390 18 q 415 53 407 36 q 426 92 424 71 l 426 531 q 382 588 426 567 l 357 596 l 185 596 l 167 583 l 167 92 q 188 35 171 58 q 219 7 206 13 l 235 0 l 167 0 l 71 0 l 71 0 l 3 0 q 9 3 6 1 q 24 11 13 4 q 43 27 35 18 q 60 53 51 36 q 71 92 68 71 l 71 606 q 65 626 68 614 q 55 674 61 639 q 49 736 49 708 q 172 921 53 871 q 319 931 244 951 q 451 838 394 910 l 353 772 q 351 778 353 775 q 346 794 350 782 q 336 817 342 806 q 322 843 331 829 q 304 869 314 857 q 281 891 294 881 q 252 906 267 901 q 218 910 238 911 q 178 900 199 910 q 117 842 136 883 q 101 759 97 800 q 124 683 106 718 q 167 642 142 649 l 201 632 l 433 632 l 522 706 l 522 668 l 522 632 l 522 596 l 522 540 l 522 92 z "},"ﬂ":{"ha":594,"x_min":3,"x_max":592,"o":"m 589 1 l 590 0 l 358 0 q 413 46 392 10 q 426 92 424 67 l 426 531 q 382 588 426 567 l 357 596 l 185 596 l 167 583 l 167 92 q 178 53 169 71 q 195 27 186 36 q 213 11 204 18 q 229 3 222 4 l 235 0 l 167 0 l 71 0 l 71 0 l 3 0 q 9 3 6 1 q 24 11 13 4 q 43 27 35 18 q 60 53 51 36 q 71 92 68 71 l 71 606 q 65 626 68 614 q 55 674 61 639 q 49 736 49 708 q 172 921 53 886 q 225 926 196 931 q 280 910 254 922 q 326 864 306 899 q 356 776 347 829 l 238 728 q 239 735 238 731 q 243 753 240 739 q 247 779 246 767 q 249 810 247 792 q 247 840 250 828 q 238 866 243 851 q 222 886 233 881 q 197 896 211 892 q 158 890 182 900 q 99 838 115 876 q 90 758 82 799 q 120 683 99 718 q 167 642 142 649 l 201 632 l 426 632 l 426 801 q 382 857 426 838 l 354 867 l 426 897 l 522 939 l 522 939 l 522 810 l 522 706 l 522 668 l 522 632 l 522 596 l 522 540 l 522 92 q 542 40 526 63 q 568 11 557 18 q 589 1 579 4 z "}}}
